<?xml version="1.0" encoding="UTF-8" standalone="no"?>
<!-- Created with Inkscape (http://www.inkscape.org/) -->

<svg
   width="150.702mm"
   height="25.625mm"
   viewBox="0 0 150.70199 25.625"
   version="1.1"
   id="svg1"
   sodipodi:docname="titel0.svg"
   xml:space="preserve"
   inkscape:version="1.3.2 (091e20ef0f, 2023-11-25, custom)"
   xmlns:inkscape="http://www.inkscape.org/namespaces/inkscape"
   xmlns:sodipodi="http://sodipodi.sourceforge.net/DTD/sodipodi-0.dtd"
   xmlns="http://www.w3.org/2000/svg"
   xmlns:svg="http://www.w3.org/2000/svg"><sodipodi:namedview
     id="namedview1"
     pagecolor="#ffffff"
     bordercolor="#000000"
     borderopacity="0.25"
     inkscape:showpageshadow="2"
     inkscape:pageopacity="0.0"
     inkscape:pagecheckerboard="0"
     inkscape:deskcolor="#d1d1d1"
     inkscape:document-units="mm"
     inkscape:zoom="1.0721764"
     inkscape:cx="390.7939"
     inkscape:cy="27.514129"
     inkscape:window-width="1920"
     inkscape:window-height="1139"
     inkscape:window-x="0"
     inkscape:window-y="61"
     inkscape:window-maximized="1"
     inkscape:current-layer="svg1"
     showgrid="false" /><defs
     id="defs1"><filter
       inkscape:label="Film Grain"
       inkscape:menu="Image Effects"
       inkscape:menu-tooltip="Adds a small scale graininess"
       style="color-interpolation-filters:sRGB"
       id="filter99"
       x="0"
       y="0"
       width="1"
       height="1"><feTurbulence
         type="fractalNoise"
         numOctaves="3"
         baseFrequency="1"
         seed="0"
         result="result0"
         id="feTurbulence97" /><feColorMatrix
         result="result4"
         values="0"
         type="saturate"
         id="feColorMatrix98" /><feComposite
         in="SourceGraphic"
         in2="result4"
         operator="arithmetic"
         k1="1.25"
         k2="0.5"
         k3="0.5"
         result="result2"
         id="feComposite98"
         k4="0" /><feBlend
         result="result5"
         mode="normal"
         in="result2"
         in2="SourceGraphic"
         id="feBlend98" /><feComposite
         in="result5"
         in2="SourceGraphic"
         operator="in"
         result="result3"
         id="feComposite99" /></filter><filter
       inkscape:label="Sharpen"
       inkscape:menu="Image Effects"
       inkscape:menu-tooltip="Sharpen edges and boundaries within the object, force=0.15"
       style="color-interpolation-filters:sRGB"
       id="filter97"
       x="0"
       y="0"
       width="1"
       height="1"><feTurbulence
         type="fractalNoise"
         numOctaves="3"
         baseFrequency="1"
         seed="0"
         result="result0"
         id="feTurbulence96" /><feColorMatrix
         result="result4"
         values="0"
         type="saturate"
         id="feColorMatrix96" /><feComposite
         in="SourceGraphic"
         in2="result4"
         operator="arithmetic"
         k1="1.25"
         k2="0.5"
         k3="0.5"
         result="result2"
         id="feComposite96"
         k4="0" /><feBlend
         result="result5"
         mode="normal"
         in="result2"
         in2="SourceGraphic"
         id="feBlend96" /><feComposite
         in="result5"
         in2="SourceGraphic"
         operator="in"
         result="fbSourceGraphic"
         id="feComposite97" /><feColorMatrix
         result="fbSourceGraphicAlpha"
         in="fbSourceGraphic"
         values="0 0 0 -1 0 0 0 0 -1 0 0 0 0 -1 0 0 0 0 1 0"
         id="feColorMatrix97" /><feConvolveMatrix
         id="feConvolveMatrix97"
         order="3 3"
         kernelMatrix="0 -0.15 0 -0.15 1.6 -0.15 0 -0.15 0"
         divisor="1"
         in="fbSourceGraphic"
         targetX="1"
         targetY="1" /></filter></defs><g
     id="g99"
     style="stroke-width:0;stroke-dasharray:none"
     transform="matrix(0.16615736,0,0,0.16615736,122.2204,-6.8024973)"><path
       id="path2"
       style="fill:#8a0000;fill-opacity:1;stroke:#ffffff;stroke-width:0;stroke-linecap:round;stroke-dasharray:none;stroke-opacity:1;paint-order:markers stroke fill;filter:url(#filter99)"
       d="m 73.912506,107.46329 c 7.163569,1.36804 12.127984,7.91464 15.058512,14.45804 4.57459,-2.19979 8.836106,-4.46214 13.046232,-3.5941 l -6.415629,-8.70696 c -5.330234,-6.7359 -12.811487,-8.27084 -21.013187,-2.59726 z" /><path
       style="fill:#222222;fill-opacity:1;stroke:#ffffff;stroke-width:0;stroke-linecap:round;stroke-dasharray:none;stroke-opacity:1;paint-order:markers stroke fill;filter:url(#filter97)"
       d="m 148.84949,185.77183 c -5.67698,6.31295 -16.33074,-0.70437 -15.6316,-6.78523 l 2.23287,-7.96728 c 1.30563,-5.26371 -0.65823,-8.21057 -4.27738,-13.12155 L 95.601468,109.62014 c -5.33024,-6.7359 -12.811542,-8.27071 -21.01325,-2.59712 l -12.266271,7.98771 c -5.781992,3.9025 -8.777081,4.88901 -13.171685,3.04699 C 38.578748,112.80808 32.083641,102.81127 31.031152,95.784782 30.923762,90.089249 39.181068,84.828646 43.543466,81.316025 59.073152,68.914081 83.002939,55.505831 101.1146,49.772438 c 18.7381,-6.285525 28.06329,6.596385 27.60424,17.955872 -0.53575,4.263882 -2.72963,9.203192 -2.72963,9.203192 -2.75361,6.131471 -1.62506,12.290514 2.45058,17.873628 l 36.88763,56.87172 c 3.18289,4.82502 2.10953,8.56643 -0.68904,12.15516 z"
       id="path1"
       sodipodi:nodetypes="cccccccccsccccccc" /></g><path
     style="font-size:14.8167px;line-height:14px;font-family:Gabriella;-inkscape-font-specification:'Gabriella, @wght=400';font-variation-settings:'wght' 400;letter-spacing:0px;word-spacing:0.264583px;fill:#ffffff;stroke-width:0.7;stroke-linecap:round;paint-order:markers stroke fill"
     d="m 9.4020874,12.190356 h 5.8674136 l 1.289052,-4.6079934 h 0.281518 l 1.289053,4.6079934 h 5.867413 l 2.933706,-9.4826877 h -5.408095 l -1.111253,4.44501 h -0.251883 l -1.229787,-4.44501 h -4.459826 l -1.229786,4.44501 h -0.251884 l -1.111253,-4.44501 H 6.4683808 Z m 17.0836556,0 h 5.763696 l 0.607485,-1.289053 h 4.57836 l 0.607485,1.289053 h 5.763696 L 39.494806,2.7076683 h -8.697403 z m 7.571334,-3.8227083 0.963085,-2.0150712 h 0.251884 l 0.963086,2.0150712 z m 10.934732,3.8227083 h 5.363646 V 2.7076683 h -5.363646 z m 11.201411,0 h 5.319196 V 6.6192771 h 4.652443 V 2.7076683 H 51.540776 v 3.9116088 h 4.652444 z m 11.453313,0 h 5.363646 V 2.7076683 h -5.363646 z m 7.734307,0 h 5.185845 v -3.09669 h 0.400051 l 3.393024,3.09669 h 6.134114 V 2.7076683 h -5.156212 v 3.259674 H 84.937611 L 81.544587,2.7076683 H 75.38084 Z m 24.417927,0.162984 c 1.229783,0 2.592923,-0.05927 4.044963,-0.162984 l 1.34832,-3.4522908 h 0.0296 v 3.4522908 h 2.69664 V 7.1082282 h -8.060287 v 1.629837 h 4.341297 l -0.97791,0.5482179 -5.00804,-0.04445 V 6.3377598 h 9.70494 V 2.7076683 c -3.11151,-0.148167 -4.94878,-0.2074338 -6.53417,-0.2074338 -6.800862,0 -9.408601,1.3927698 -9.408601,5.0228613 0,3.5560082 2.074338,4.8302442 7.823218,4.8302442 z m 17.125983,-0.02963 c 0.5334,0 0.99272,-0.459318 0.99272,-1.007536 0,-0.533401 -0.45932,-0.992719 -0.99272,-0.992719 -0.54822,0 -1.00753,0.459318 -1.00753,0.992719 0,0.548218 0.45931,1.007536 1.00753,1.007536 z m -4.14868,-1.007536 c 0,0.548218 0.45932,1.007536 1.00754,1.007536 0.5334,0 0.99272,-0.459318 0.99272,-1.007536 0,-0.533401 -0.45932,-0.992719 -0.99272,-0.992719 -0.54822,0 -1.00754,0.459318 -1.00754,0.992719 z m 6.28229,0 c 0,0.548218 0.45931,1.007536 1.00753,1.007536 0.5334,0 0.99272,-0.459318 0.99272,-1.007536 0,-0.533401 -0.45932,-0.992719 -0.99272,-0.992719 -0.54822,0 -1.00753,0.459318 -1.00753,0.992719 z"
     id="text1"
     aria-label="WAITING …" /><path
     style="font-size:6.35px;line-height:14px;font-family:'VCR OCD Faux';-inkscape-font-specification:'VCR OCD Faux, Normal';font-variation-settings:'wght' 400;letter-spacing:0px;word-spacing:0.264583px;fill:#ffffff;stroke-width:0.7;stroke-linecap:round;paint-order:markers stroke fill"
     d="m 1.2226111,18.163828 v 0.310059 H 0.91255247 v -0.310059 z m 0.3100585,0 v 0.310059 H 1.2226111 v -0.310059 z m 0,0.310059 v 0.310058 H 1.2226111 v -0.310058 z m 0,0.310058 v 0.310059 H 1.2226111 v -0.310059 z m 0,0.310059 v 0.310058 H 1.2226111 v -0.310058 z m 0,0.310058 v 0.310059 H 1.2226111 v -0.310059 z m 0,0.310059 v 0.310058 H 1.2226111 v -0.310058 z m 0,0.310058 v 0.310059 H 1.2226111 v -0.310059 z m 0,0.310059 v 0.310059 H 1.2226111 v -0.310059 z m 0,0.310059 v 0.310058 H 1.2226111 v -0.310058 z m 0,0.310058 v 0.310059 H 1.2226111 v -0.310059 z m -0.3100585,0 v 0.310059 H 0.91255247 v -0.310059 z m 0,-0.310058 v 0.310058 H 0.91255247 v -0.310058 z m 0,-0.310059 v 0.310059 H 0.91255247 v -0.310059 z m 0,-1.860351 v 0.310058 H 0.91255247 v -0.310058 z m 0,0.310058 v 0.310059 H 0.91255247 v -0.310059 z m 0,0.310059 v 0.310058 H 0.91255247 v -0.310058 z m 0,0.310058 v 0.310059 H 0.91255247 v -0.310059 z m 0,0.310059 v 0.310058 H 0.91255247 v -0.310058 z m 0,0.310058 v 0.310059 H 0.91255247 v -0.310059 z m 0.6201171,0.930176 v 0.310059 H 1.5326696 v -0.310059 z m 0,0.310059 v 0.310058 H 1.5326696 v -0.310058 z m -0.3100586,0 v 0.310058 H 1.2226111 v -0.310058 z m 0.3100586,0.310058 v 0.310059 H 1.5326696 v -0.310059 z m 0.3100586,0 v 0.310059 H 1.8427282 v -0.310059 z m 0,-0.310058 v 0.310058 H 1.8427282 v -0.310058 z m 0.3100586,0 v 0.310058 H 2.1527868 V 21.264414 Z M 2.772904,19.714121 v 0.310058 H 2.4628454 v -0.310058 z m 0,0.310058 v 0.310059 H 2.4628454 v -0.310059 z m 0,0.310059 v 0.310059 H 2.4628454 v -0.310059 z m 0,0.310059 v 0.310058 H 2.4628454 v -0.310058 z m 0,0.310058 v 0.310059 H 2.4628454 v -0.310059 z m 0.3100586,-1.240234 v 0.310058 H 2.772904 v -0.310058 z m 0,0.310058 v 0.310059 H 2.772904 v -0.310059 z m 0,0.310059 v 0.310059 H 2.772904 v -0.310059 z m 0,0.310059 v 0.310058 H 2.772904 v -0.310058 z m 0,0.310058 v 0.310059 H 2.772904 v -0.310059 z m 0.3100586,0.310059 v 0.310058 H 3.0829626 v -0.310058 z m 0.3100586,0.310058 v 0.310059 H 3.3930212 v -0.310059 z m 0.3100586,0 v 0.310059 H 3.7030798 v -0.310059 z m 0,-0.310058 v 0.310058 H 3.7030798 v -0.310058 z m -0.3100586,0 v 0.310058 H 3.3930212 v -0.310058 z m 0.3100586,-0.310059 v 0.310059 H 3.7030798 v -0.310059 z m 0.3100586,0.310059 v 0.310058 H 4.0131384 v -0.310058 z m 0.3100585,-0.310059 v 0.310059 H 4.323197 v -0.310059 z m -0.3100585,0 v 0.310059 H 4.0131384 v -0.310059 z m 0,-0.310058 v 0.310058 H 4.0131384 v -0.310058 z m 0,-0.310059 v 0.310059 H 4.0131384 v -0.310059 z m 0,-0.310059 v 0.310059 H 4.0131384 v -0.310059 z m 0,-1.860351 v 0.310059 H 4.0131384 v -0.310059 z m 0,0.310059 v 0.310058 H 4.0131384 v -0.310058 z m 0,0.310058 v 0.310059 H 4.0131384 v -0.310059 z m 0,0.310059 v 0.310058 H 4.0131384 v -0.310058 z m 0,0.310058 v 0.310059 H 4.0131384 v -0.310059 z m 0,0.310059 v 0.310058 H 4.0131384 v -0.310058 z m 0.3100585,0 v 0.310058 H 4.323197 v -0.310058 z m 0,0.310058 v 0.310059 H 4.323197 v -0.310059 z m 0,-1.860351 v 0.310059 H 4.323197 v -0.310059 z m 0,0.310059 v 0.310058 H 4.323197 v -0.310058 z m 0,0.310058 v 0.310059 H 4.323197 v -0.310059 z m 0,0.620117 v 0.310059 H 4.323197 v -0.310059 z m 0,0.930176 v 0.310059 H 4.323197 v -0.310059 z m 0,0.310059 v 0.310058 H 4.323197 v -0.310058 z m 0,-1.550293 v 0.310058 H 4.323197 v -0.310058 z m -2.1704101,2.480468 v 0.310059 H 2.1527868 v -0.310059 z m 0.9301758,0 v 0.310059 H 3.0829626 V 21.574472 Z M 2.4628454,20.954355 v 0.310059 H 2.1527868 v -0.310059 z m 0.9301758,0 v 0.310059 H 3.0829626 v -0.310059 z m 2.7905274,-1.550293 v 0.310059 H 5.87349 v -0.310059 z m 0.3100585,0 v 0.310059 H 6.1835486 v -0.310059 z m 0.3100586,0 v 0.310059 H 6.4936071 v -0.310059 z m 0.3100586,0 v 0.310059 H 6.8036657 v -0.310059 z m 0.3100586,0 v 0.310059 H 7.1137243 v -0.310059 z m 0,0.310059 v 0.310058 H 7.1137243 v -0.310058 z m -0.3100586,0 v 0.310058 H 6.8036657 v -0.310058 z m -0.3100586,0 v 0.310058 H 6.4936071 v -0.310058 z m -0.3100586,0 v 0.310058 H 6.1835486 v -0.310058 z m -0.3100585,0 v 0.310058 H 5.87349 v -0.310058 z m -0.3100586,0 v 0.310058 H 5.5634314 v -0.310058 z m 0.3100586,0.310058 v 0.310059 H 5.87349 v -0.310059 z m -0.3100586,0 v 0.310059 H 5.5634314 v -0.310059 z m -0.3100586,0 v 0.310059 H 5.2533728 v -0.310059 z m 0,0.310059 v 0.310059 H 5.2533728 v -0.310059 z m 0.3100586,0 v 0.310059 H 5.5634314 v -0.310059 z m -0.3100586,0.310059 v 0.310058 H 5.2533728 v -0.310058 z m 0,0.310058 v 0.310059 H 5.2533728 v -0.310059 z m 0.3100586,0 v 0.310059 H 5.5634314 v -0.310059 z m 0,-0.310058 v 0.310058 H 5.5634314 v -0.310058 z m 0,0.620117 v 0.310058 H 5.5634314 v -0.310058 z m 0.3100586,0 v 0.310058 H 5.87349 v -0.310058 z m 0,-0.310059 v 0.310059 H 5.87349 v -0.310059 z m 0,0.620117 v 0.310059 H 5.87349 v -0.310059 z m 0.3100585,0 v 0.310059 H 6.1835486 v -0.310059 z m 0,-0.310058 v 0.310058 H 6.1835486 v -0.310058 z m 0.3100586,0 v 0.310058 H 6.4936071 v -0.310058 z m 0.3100586,0 v 0.310058 H 6.8036657 v -0.310058 z m 0.3100586,0 v 0.310058 H 7.1137243 v -0.310058 z m 0,0.310058 v 0.310059 H 7.1137243 v -0.310059 z m -0.3100586,0 v 0.310059 H 6.8036657 v -0.310059 z m -0.3100586,0 v 0.310059 H 6.4936071 v -0.310059 z m 0.9301758,-0.620117 v 0.310059 H 7.4237829 v -0.310059 z m 0,0.310059 v 0.310058 H 7.4237829 v -0.310058 z m 0,-1.550293 v 0.310058 H 7.4237829 v -0.310058 z m 0,0.310058 v 0.310059 H 7.4237829 v -0.310059 z m 0.3100586,-1.550292 v 0.310058 H 7.7338415 v -0.310058 z m 0,0.310058 v 0.310059 H 7.7338415 v -0.310059 z m 0,0.310059 v 0.310058 H 7.7338415 v -0.310058 z m 0,0.310058 v 0.310059 H 7.7338415 v -0.310059 z m 0,0.310059 v 0.310058 H 7.7338415 v -0.310058 z m 0,0.310058 v 0.310059 H 7.7338415 v -0.310059 z m 0,0.310059 v 0.310059 H 7.7338415 v -0.310059 z m 0,0.310059 v 0.310058 H 7.7338415 v -0.310058 z m 0,0.310058 v 0.310059 H 7.7338415 v -0.310059 z m 0,0.310059 v 0.310058 H 7.7338415 v -0.310058 z m 0,0.310058 v 0.310059 H 7.7338415 v -0.310059 z m 0.3100586,-2.790527 v 0.310059 H 8.0439001 v -0.310059 z m 0,0.310059 v 0.310058 H 8.0439001 v -0.310058 z m 0,0.310058 v 0.310059 H 8.0439001 v -0.310059 z m 0,0.310059 v 0.310058 H 8.0439001 v -0.310058 z m 0,0.310058 v 0.310059 H 8.0439001 v -0.310059 z m 0,0.310059 v 0.310059 H 8.0439001 v -0.310059 z m 0,0.310059 v 0.310058 H 8.0439001 v -0.310058 z m 0,0.310058 v 0.310059 H 8.0439001 v -0.310059 z m 0,0.310059 v 0.310058 H 8.0439001 v -0.310058 z m 0,0.310058 v 0.310059 H 8.0439001 V 21.574472 Z M 7.7338415,18.783945 v 0.310059 H 7.4237829 v -0.310059 z m 0,-0.310058 v 0.310058 H 7.4237829 V 18.473887 Z M 6.4936071,18.163828 v 0.310059 H 6.1835486 v -0.310059 z m 0.6201172,0 v 0.310059 H 6.8036657 v -0.310059 z m 0.3100586,0 v 0.310059 H 7.1137243 v -0.310059 z m 0.3100586,0 v 0.310059 H 7.4237829 v -0.310059 z m -0.9301758,0 v 0.310059 H 6.4936071 v -0.310059 z m -0.6201171,0.310059 v 0.310058 H 5.87349 v -0.310058 z m 0.3100585,0 v 0.310058 H 6.1835486 v -0.310058 z m 0.6201172,0 v 0.310058 H 6.8036657 v -0.310058 z m 0.3100586,0 v 0.310058 H 7.1137243 v -0.310058 z m -0.6201172,0 v 0.310058 H 6.4936071 V 18.473887 Z M 6.1835486,18.163828 v 0.310059 H 5.87349 V 18.163828 Z M 5.87349,18.473887 v 0.310058 H 5.5634314 v -0.310058 z m 0,-0.310059 v 0.310059 H 5.5634314 v -0.310059 z m 4.34082,-0.620117 v 0.310058 H 9.9042517 v -0.310058 z m 0,-0.310059 v 0.310059 H 9.9042517 v -0.310059 z m 0.310059,0 v 0.310059 H 10.21431 v -0.310059 z m 0,0.310059 v 0.310058 H 10.21431 v -0.310058 z m -0.310059,0.310058 v 0.310059 H 9.9042517 v -0.310059 z m 0.310059,0 v 0.310059 H 10.21431 V 17.853769 Z M 9.9042517,17.543711 v 0.310058 H 9.5941931 v -0.310058 z m 0.9301753,0 v 0.310058 h -0.310058 v -0.310058 z m -0.620117,1.550293 v 0.310058 H 9.9042517 v -0.310058 z m 0,0.310058 v 0.310059 H 9.9042517 v -0.310059 z m 0.310059,0 v 0.310059 H 10.21431 v -0.310059 z m 0,-0.310058 v 0.310058 H 10.21431 v -0.310058 z m -0.310059,0.620117 v 0.310058 H 9.9042517 v -0.310058 z m 0,0.310058 v 0.310059 H 9.9042517 v -0.310059 z m 0,0.310059 v 0.310059 H 9.9042517 v -0.310059 z m 0,0.310059 v 0.310058 H 9.9042517 v -0.310058 z m 0,0.310058 v 0.310059 H 9.9042517 v -0.310059 z m 0.310059,0 v 0.310059 H 10.21431 v -0.310059 z m 0,-0.310058 v 0.310058 H 10.21431 v -0.310058 z m 0,-0.310059 v 0.310059 H 10.21431 v -0.310059 z m 0,-0.310059 v 0.310059 H 10.21431 v -0.310059 z m 0,-0.310058 v 0.310058 H 10.21431 v -0.310058 z m 0,1.550293 v 0.310058 H 10.21431 v -0.310058 z m -0.310059,0 v 0.310058 H 9.9042517 v -0.310058 z m 0.620117,0 v 0.310058 h -0.310058 v -0.310058 z m 0,0.310058 v 0.310059 h -0.310058 v -0.310059 z m -0.310058,0 v 0.310059 H 10.21431 v -0.310059 z m -0.310059,0 v 0.310059 H 9.9042517 v -0.310059 z m 0.930176,-0.310058 v 0.310058 h -0.310059 v -0.310058 z m 0,0.310058 v 0.310059 h -0.310059 v -0.310059 z m 0.310059,0 v 0.310059 h -0.310059 v -0.310059 z m 0,-0.310058 v 0.310058 h -0.310059 v -0.310058 z m -2.1704105,0 v 0.310058 H 8.9740759 v -0.310058 z m 0,0.310058 v 0.310059 H 8.9740759 v -0.310059 z m 0.3100586,0 v 0.310059 H 9.2841345 v -0.310059 z m 0.3100586,0 v 0.310059 H 9.5941931 v -0.310059 z m 0,-0.310058 v 0.310058 H 9.5941931 v -0.310058 z m -0.3100586,0 v 0.310058 H 9.2841345 v -0.310058 z m 0.3100586,-2.480469 v 0.310059 H 9.5941931 v -0.310059 z m 0.3100583,0 v 0.310059 H 9.9042517 v -0.310059 z m 0.310059,0 v 0.310059 H 10.21431 V 18.783945 Z M 9.9042517,18.473887 v 0.310058 H 9.5941931 v -0.310058 z m 0.3100583,0 v 0.310058 H 9.9042517 v -0.310058 z m 0.310059,0 v 0.310058 H 10.21431 v -0.310058 z m -0.9301759,0 v 0.310058 H 9.2841345 v -0.310058 z m 0,0.310058 v 0.310059 H 9.2841345 v -0.310059 z m 3.7207029,-1.240234 v 0.310058 h -0.310058 v -0.310058 z m 0,0.310058 v 0.310059 h -0.310058 v -0.310059 z m 0,0.310059 v 0.310059 h -0.310058 v -0.310059 z m 0.310059,0 v 0.310059 h -0.310059 v -0.310059 z m 0,-0.310059 v 0.310059 h -0.310059 v -0.310059 z m 0,-0.310058 v 0.310058 h -0.310059 v -0.310058 z m -0.930176,0.930176 v 0.310058 H 12.38472 v -0.310058 z m 0.310059,0 v 0.310058 h -0.310059 v -0.310058 z m 0.310058,0 v 0.310058 h -0.310058 v -0.310058 z m 0.310059,0 v 0.310058 h -0.310059 v -0.310058 z m 0.310058,0 v 0.310058 h -0.310058 v -0.310058 z m 0.310059,0 v 0.310058 h -0.310059 v -0.310058 z m 0.310059,0 v 0.310058 h -0.310059 v -0.310058 z m 0,0.310058 v 0.310059 h -0.310059 v -0.310059 z m -0.310059,0 v 0.310059 h -0.310059 v -0.310059 z m -0.310059,0 v 0.310059 h -0.310058 v -0.310059 z m -0.620117,0 v 0.310059 h -0.310058 v -0.310059 z m -0.310058,0 v 0.310059 h -0.310059 v -0.310059 z m -0.310059,0 v 0.310059 H 12.38472 v -0.310059 z m 0.930176,0 v 0.310059 h -0.310059 v -0.310059 z m 0,0.310059 v 0.310058 h -0.310059 v -0.310058 z m 0,0.310058 v 0.310059 h -0.310059 v -0.310059 z m 0,0.310059 v 0.310058 h -0.310059 v -0.310058 z m -0.310059,1.240234 v 0.310059 h -0.310058 v -0.310059 z m 0,-0.310058 v 0.310058 h -0.310058 v -0.310058 z m 0,-0.310059 v 0.310059 h -0.310058 v -0.310059 z m 0,-0.310059 v 0.310059 h -0.310058 v -0.310059 z m 0,-0.310058 v 0.310058 h -0.310058 v -0.310058 z m 0,-0.310059 v 0.310059 h -0.310058 v -0.310059 z m 0,-0.310058 v 0.310058 h -0.310058 v -0.310058 z m 0.310059,0.930175 v 0.310059 h -0.310059 v -0.310059 z m 0,1.240235 v 0.310058 h -0.310059 v -0.310058 z m 0.310058,0 v 0.310058 h -0.310058 v -0.310058 z m 0,0.310058 v 0.310059 h -0.310058 v -0.310059 z m 0.310059,0 v 0.310059 h -0.310059 v -0.310059 z m 0,-0.310058 v 0.310058 h -0.310059 v -0.310058 z m 0.310059,0 v 0.310058 h -0.310059 v -0.310058 z m 0,0.310058 v 0.310059 h -0.310059 v -0.310059 z m -0.930176,-0.620117 v 0.310059 h -0.310059 v -0.310059 z m 0,-0.620117 v 0.310059 h -0.310059 v -0.310059 z m 0,0.310059 v 0.310058 h -0.310059 v -0.310058 z m -0.310059,-3.410645 v 0.310059 h -0.310058 v -0.310059 z m 0.310059,0 v 0.310059 h -0.310059 v -0.310059 z m 1.240234,1.240235 v 0.310058 h -0.310058 v -0.310058 z m 0,0.310058 v 0.310059 h -0.310058 v -0.310059 z m 0,2.480469 v 0.310058 h -0.310058 v -0.310058 z m 0,0.310058 v 0.310059 h -0.310058 v -0.310059 z m -1.240234,0 v 0.310059 h -0.310059 v -0.310059 z m -0.310059,-0.310058 v 0.310058 H 13.004838 V 21.264414 Z M 12.38472,18.473887 v 0.310058 h -0.310058 v -0.310058 z m 0,0.310058 v 0.310059 h -0.310058 v -0.310059 z m 2.790528,2.480469 v 0.310058 h -0.310059 v -0.310058 z m 0,0.310058 v 0.310059 h -0.310059 v -0.310059 z m 1.860351,-4.030761 v 0.310058 h -0.310058 v -0.310058 z m 0,-0.310059 v 0.310059 h -0.310058 v -0.310059 z m 0.310059,0 v 0.310059 h -0.310059 v -0.310059 z m 0,0.310059 v 0.310058 h -0.310059 v -0.310058 z m -0.310059,0.310058 v 0.310059 h -0.310058 v -0.310059 z m 0.310059,0 v 0.310059 h -0.310059 v -0.310059 z m -0.620117,-0.310058 v 0.310058 h -0.310059 v -0.310058 z m 0.930176,0 v 0.310058 h -0.310059 v -0.310058 z m -0.620118,1.550293 v 0.310058 h -0.310058 v -0.310058 z m 0,0.310058 v 0.310059 h -0.310058 v -0.310059 z m 0.310059,0 v 0.310059 h -0.310059 v -0.310059 z m 0,-0.310058 v 0.310058 h -0.310059 v -0.310058 z m -0.310059,0.620117 v 0.310058 h -0.310058 v -0.310058 z m 0,0.310058 v 0.310059 h -0.310058 v -0.310059 z m 0,0.310059 v 0.310059 h -0.310058 v -0.310059 z m 0,0.310059 v 0.310058 h -0.310058 v -0.310058 z m 0,0.310058 v 0.310059 h -0.310058 v -0.310059 z m 0.310059,0 v 0.310059 h -0.310059 v -0.310059 z m 0,-0.310058 v 0.310058 h -0.310059 v -0.310058 z m 0,-0.310059 v 0.310059 h -0.310059 v -0.310059 z m 0,-0.310059 v 0.310059 h -0.310059 v -0.310059 z m 0,-0.310058 v 0.310058 h -0.310059 v -0.310058 z m 0,1.550293 v 0.310058 h -0.310059 v -0.310058 z m -0.310059,0 v 0.310058 h -0.310058 v -0.310058 z m 0.620118,0 v 0.310058 h -0.310059 v -0.310058 z m 0,0.310058 v 0.310059 h -0.310059 v -0.310059 z m -0.310059,0 v 0.310059 h -0.310059 v -0.310059 z m -0.310059,0 v 0.310059 h -0.310058 v -0.310059 z m 0.930176,-0.310058 v 0.310058 h -0.310058 v -0.310058 z m 0,0.310058 v 0.310059 h -0.310058 v -0.310059 z m 0.310059,0 v 0.310059 h -0.310059 v -0.310059 z m 0,-0.310058 v 0.310058 h -0.310059 v -0.310058 z m -2.17041,0 v 0.310058 h -0.310059 v -0.310058 z m 0,0.310058 v 0.310059 h -0.310059 v -0.310059 z m 0.310058,0 v 0.310059 h -0.310058 v -0.310059 z m 0.310059,0 v 0.310059 h -0.310059 v -0.310059 z m 0,-0.310058 v 0.310058 h -0.310059 v -0.310058 z m -0.310059,0 v 0.310058 h -0.310058 v -0.310058 z m 0.310059,-2.480469 v 0.310059 h -0.310059 v -0.310059 z m 0.310058,0 v 0.310059 h -0.310058 v -0.310059 z m 0.310059,0 v 0.310059 h -0.310059 v -0.310059 z m -0.620117,-0.310058 v 0.310058 h -0.310059 v -0.310058 z m 0.310058,0 v 0.310058 h -0.310058 v -0.310058 z m 0.310059,0 v 0.310058 h -0.310059 v -0.310058 z m -0.930176,0 v 0.310058 h -0.310058 v -0.310058 z m 0,0.310058 v 0.310059 h -0.310058 v -0.310059 z m 3.100586,0.310059 v 2.790527 h -0.620117 v -3.720703 h 0.620117 v 0.310059 h 0.310059 v -0.310059 h 1.550293 v 0.310059 h 0.310058 v 0.310058 h 0.310059 v 3.100586 H 21.37642 v -2.790527 h -0.310059 v -0.310059 h -1.240234 v 0.310059 z m 5.891113,3.410644 v 0.310059 h -0.310058 v 0.310058 h -1.860352 v -0.620117 h 1.550293 V 22.19459 h 0.310059 v -0.620118 h -0.310059 v 0.310059 H 23.54683 v -0.310059 h -0.310059 v -0.310058 h -0.310058 v -0.310059 h -0.310059 v -1.860351 h 0.310059 v -0.310059 h 0.310058 v -0.310058 h 0.310059 v -0.310059 h 1.240234 v 0.310059 h 0.310059 v -0.310059 h 0.620117 v 4.34082 z M 23.54683,20.644297 v 0.310058 h 0.310058 v 0.310059 h 0.620118 v -0.310059 h 0.310058 v -0.310058 h 0.310059 v -1.240235 h -0.310059 v -0.310058 h -0.310058 v -0.310059 h -0.620118 v 0.310059 H 23.54683 v 0.310058 h -0.310059 v 1.240235 z m 8.016048,-3.100586 v 0.310058 H 31.25282 v -0.310058 z m 0,0.310058 v 0.310059 H 31.25282 v -0.310059 z m 0,0.310059 v 0.310059 H 31.25282 v -0.310059 z m 0.310059,0 v 0.310059 h -0.310059 v -0.310059 z m 0,-0.310059 v 0.310059 h -0.310059 v -0.310059 z m 0,-0.310058 v 0.310058 h -0.310059 v -0.310058 z m -0.930176,0.930176 v 0.310058 h -0.310059 v -0.310058 z m 0.310059,0 v 0.310058 h -0.310059 v -0.310058 z m 0.310058,0 v 0.310058 H 31.25282 v -0.310058 z m 0.310059,0 v 0.310058 h -0.310059 v -0.310058 z m 0.310058,0 v 0.310058 h -0.310058 v -0.310058 z m 0.310059,0 v 0.310058 h -0.310059 v -0.310058 z m 0.310059,0 v 0.310058 h -0.310059 v -0.310058 z m 0,0.310058 v 0.310059 h -0.310059 v -0.310059 z m -0.310059,0 v 0.310059 h -0.310059 v -0.310059 z m -0.310059,0 v 0.310059 h -0.310058 v -0.310059 z m -0.620117,0 v 0.310059 H 31.25282 v -0.310059 z m -0.310058,0 v 0.310059 h -0.310059 v -0.310059 z m -0.310059,0 v 0.310059 h -0.310059 v -0.310059 z m 0.930176,0 v 0.310059 h -0.310059 v -0.310059 z m 0,0.310059 v 0.310058 h -0.310059 v -0.310058 z m 0,0.310058 v 0.310059 h -0.310059 v -0.310059 z m 0,0.310059 v 0.310058 h -0.310059 v -0.310058 z m -0.310059,1.240234 v 0.310059 H 31.25282 v -0.310059 z m 0,-0.310058 v 0.310058 H 31.25282 v -0.310058 z m 0,-0.310059 v 0.310059 H 31.25282 v -0.310059 z m 0,-0.310059 v 0.310059 H 31.25282 v -0.310059 z m 0,-0.310058 v 0.310058 H 31.25282 v -0.310058 z m 0,-0.310059 v 0.310059 H 31.25282 v -0.310059 z m 0,-0.310058 v 0.310058 H 31.25282 v -0.310058 z m 0.310059,0.930175 v 0.310059 h -0.310059 v -0.310059 z m 0,1.240235 v 0.310058 h -0.310059 v -0.310058 z m 0.310058,0 v 0.310058 h -0.310058 v -0.310058 z m 0,0.310058 v 0.310059 h -0.310058 v -0.310059 z m 0.310059,0 v 0.310059 h -0.310059 v -0.310059 z m 0,-0.310058 v 0.310058 h -0.310059 v -0.310058 z m 0.310059,0 v 0.310058 h -0.310059 v -0.310058 z m 0,0.310058 v 0.310059 h -0.310059 v -0.310059 z m -0.930176,-0.620117 v 0.310059 h -0.310059 v -0.310059 z m 0,-0.620117 v 0.310059 h -0.310059 v -0.310059 z m 0,0.310059 v 0.310058 h -0.310059 v -0.310058 z m -0.310059,-3.410645 v 0.310059 H 31.25282 v -0.310059 z m 0.310059,0 v 0.310059 h -0.310059 v -0.310059 z m 1.240234,1.240235 v 0.310058 h -0.310058 v -0.310058 z m 0,0.310058 v 0.310059 h -0.310058 v -0.310059 z m 0,2.480469 v 0.310058 h -0.310058 v -0.310058 z m 0,0.310058 v 0.310059 h -0.310058 v -0.310059 z m -1.240234,0 v 0.310059 h -0.310059 v -0.310059 z m -0.310059,-0.310058 v 0.310058 H 31.25282 v -0.310058 z m -0.930176,-2.790527 v 0.310058 h -0.310058 v -0.310058 z m 0,0.310058 v 0.310059 h -0.310058 v -0.310059 z m 2.790528,2.480469 v 0.310058 h -0.310059 v -0.310058 z m 0,0.310058 v 0.310059 h -0.310059 v -0.310059 z m 1.860351,-4.030761 v 0.310058 h -0.310058 v -0.310058 z m 0,-0.310059 v 0.310059 h -0.310058 v -0.310059 z m 0.310059,0 v 0.310059 h -0.310059 v -0.310059 z m 0,0.310059 v 0.310058 h -0.310059 v -0.310058 z m -0.310059,0.310058 v 0.310059 h -0.310058 v -0.310059 z m 0.310059,0 v 0.310059 h -0.310059 v -0.310059 z m -0.620117,-0.310058 v 0.310058 h -0.310059 v -0.310058 z m 0.930176,0 v 0.310058 H 35.59364 v -0.310058 z m -0.620118,1.550293 v 0.310058 h -0.310058 v -0.310058 z m 0,0.310058 v 0.310059 h -0.310058 v -0.310059 z m 0.310059,0 v 0.310059 h -0.310059 v -0.310059 z m 0,-0.310058 v 0.310058 h -0.310059 v -0.310058 z m -0.310059,0.620117 v 0.310058 h -0.310058 v -0.310058 z m 0,0.310058 v 0.310059 h -0.310058 v -0.310059 z m 0,0.310059 v 0.310059 h -0.310058 v -0.310059 z m 0,0.310059 v 0.310058 h -0.310058 v -0.310058 z m 0,0.310058 v 0.310059 h -0.310058 v -0.310059 z m 0.310059,0 v 0.310059 h -0.310059 v -0.310059 z m 0,-0.310058 v 0.310058 h -0.310059 v -0.310058 z m 0,-0.310059 v 0.310059 h -0.310059 v -0.310059 z m 0,-0.310059 v 0.310059 h -0.310059 v -0.310059 z m 0,-0.310058 v 0.310058 h -0.310059 v -0.310058 z m 0,1.550293 v 0.310058 h -0.310059 v -0.310058 z m -0.310059,0 v 0.310058 h -0.310058 v -0.310058 z m 0.620118,0 v 0.310058 H 35.59364 v -0.310058 z m 0,0.310058 v 0.310059 H 35.59364 v -0.310059 z m -0.310059,0 v 0.310059 h -0.310059 v -0.310059 z m -0.310059,0 v 0.310059 h -0.310058 v -0.310059 z m 0.930176,-0.310058 v 0.310058 h -0.310058 v -0.310058 z m 0,0.310058 v 0.310059 h -0.310058 v -0.310059 z m 0.310059,0 v 0.310059 h -0.310059 v -0.310059 z m 0,-0.310058 v 0.310058 h -0.310059 v -0.310058 z m -2.17041,0 v 0.310058 h -0.310059 v -0.310058 z m 0,0.310058 v 0.310059 h -0.310059 v -0.310059 z m 0.310058,0 v 0.310059 h -0.310058 v -0.310059 z m 0.310059,0 v 0.310059 h -0.310059 v -0.310059 z m 0,-0.310058 v 0.310058 h -0.310059 v -0.310058 z m -0.310059,0 v 0.310058 h -0.310058 v -0.310058 z m 0.310059,-2.480469 v 0.310059 h -0.310059 v -0.310059 z m 0.310058,0 v 0.310059 h -0.310058 v -0.310059 z m 0.310059,0 v 0.310059 h -0.310059 v -0.310059 z m -0.620117,-0.310058 v 0.310058 h -0.310059 v -0.310058 z m 0.310058,0 v 0.310058 h -0.310058 v -0.310058 z m 0.310059,0 v 0.310058 h -0.310059 v -0.310058 z m -0.930176,0 v 0.310058 h -0.310058 v -0.310058 z m 0,0.310058 v 0.310059 h -0.310058 v -0.310059 z m 2.790528,2.790527 v 0.310059 h -0.310059 v -0.310059 z m 0,-0.310058 v 0.310058 h -0.310059 v -0.310058 z m 0,-0.310059 v 0.310059 h -0.310059 v -0.310059 z m 0,-0.310058 v 0.310058 h -0.310059 v -0.310058 z m 0,-0.310059 v 0.310059 h -0.310059 v -0.310059 z m 0,-0.310059 v 0.310059 h -0.310059 v -0.310059 z m 0,-0.310058 v 0.310058 h -0.310059 v -0.310058 z m 0,-0.310059 v 0.310059 h -0.310059 v -0.310059 z m 0,-0.310058 v 0.310058 h -0.310059 v -0.310058 z m 0,-0.310059 v 0.310059 h -0.310059 v -0.310059 z m 0,-0.310058 v 0.310058 h -0.310059 v -0.310058 z m 0,-0.310059 v 0.310059 h -0.310059 v -0.310059 z m 0.310058,0 v 0.310059 h -0.310058 v -0.310059 z m 0,0.310059 v 0.310058 h -0.310058 v -0.310058 z m 0,0.310058 v 0.310059 h -0.310058 v -0.310059 z m 0,0.310059 v 0.310058 h -0.310058 v -0.310058 z m 0,0.310058 v 0.310059 h -0.310058 v -0.310059 z m 0,0.310059 v 0.310058 h -0.310058 v -0.310058 z m 0,0.310058 v 0.310059 h -0.310058 v -0.310059 z m 0,0.310059 v 0.310059 h -0.310058 v -0.310059 z m 0,0.310059 v 0.310058 h -0.310058 v -0.310058 z m 0,0.310058 v 0.310059 h -0.310058 v -0.310059 z m 0,0.310059 v 0.310058 h -0.310058 v -0.310058 z m 0,0.310058 v 0.310059 h -0.310058 v -0.310059 z m 0.310059,-2.790527 v 0.310059 H 37.76405 v -0.310059 z m 0.620117,-0.310058 v 0.310058 h -0.310059 v -0.310058 z m 0.310058,0 v 0.310058 h -0.310058 v -0.310058 z m 0.310059,0 v 0.310058 h -0.310059 v -0.310058 z m 0,0.310058 v 0.310059 h -0.310059 v -0.310059 z m 0,0.310059 v 0.310058 h -0.310059 v -0.310058 z m 0,0.310058 v 0.310059 h -0.310059 v -0.310059 z m 0,0.310059 v 0.310058 h -0.310059 v -0.310058 z m 0,0.310058 v 0.310059 h -0.310059 v -0.310059 z m 0,0.310059 v 0.310059 h -0.310059 v -0.310059 z m 0,0.310059 v 0.310058 h -0.310059 v -0.310058 z m 0.310059,0 v 0.310058 h -0.310059 v -0.310058 z m 0,0.310058 v 0.310059 h -0.310059 v -0.310059 z m 0,0.310059 v 0.310058 h -0.310059 v -0.310058 z m 0,0.310058 v 0.310059 h -0.310059 v -0.310059 z m -0.310059,0 v 0.310059 h -0.310059 v -0.310059 z m 0,-0.310058 v 0.310058 h -0.310059 v -0.310058 z m 0,-0.310059 v 0.310059 h -0.310059 v -0.310059 z m 0.310059,-0.620117 v 0.310059 h -0.310059 v -0.310059 z m 0,-0.310059 v 0.310059 h -0.310059 v -0.310059 z m 0,-0.310058 v 0.310058 h -0.310059 v -0.310058 z m 0,-0.930176 v 0.310059 h -0.310059 v -0.310059 z m 0,0.310059 v 0.310058 h -0.310059 v -0.310058 z m 0,0.310058 v 0.310059 h -0.310059 v -0.310059 z m 0.310058,-0.930175 v 0.310058 h -0.310058 v -0.310058 z m 0.620117,-0.310059 v 0.310059 h -0.310058 v -0.310059 z m 0.310059,0 v 0.310059 h -0.310059 v -0.310059 z m 0,0.310059 v 0.310058 h -0.310059 v -0.310058 z m -0.310059,0 v 0.310058 h -0.310058 v -0.310058 z m -0.620117,0.310058 v 0.310059 h -0.310058 v -0.310059 z m 1.240235,-0.310058 v 0.310058 h -0.310059 v -0.310058 z m 0,0.310058 v 0.310059 h -0.310059 v -0.310059 z m 0,0.310059 v 0.310058 h -0.310059 v -0.310058 z m 0,0.310058 v 0.310059 h -0.310059 v -0.310059 z m 0,0.310059 v 0.310058 h -0.310059 v -0.310058 z m 0,0.310058 v 0.310059 h -0.310059 v -0.310059 z m 0,0.310059 v 0.310059 h -0.310059 v -0.310059 z m 0,0.310059 v 0.310058 h -0.310059 v -0.310058 z m 0,0.310058 v 0.310059 h -0.310059 v -0.310059 z m 0,0.310059 v 0.310058 h -0.310059 v -0.310058 z m 0,0.310058 v 0.310059 h -0.310059 v -0.310059 z m 0.310058,0 v 0.310059 h -0.310058 v -0.310059 z m 0,-0.310058 v 0.310058 h -0.310058 v -0.310058 z m 0,-0.310059 v 0.310059 h -0.310058 v -0.310059 z m 0,-0.310058 v 0.310058 h -0.310058 v -0.310058 z m 0,-0.310059 v 0.310059 h -0.310058 v -0.310059 z m 0,-0.310059 v 0.310059 h -0.310058 v -0.310059 z m 0,-0.310058 v 0.310058 h -0.310058 v -0.310058 z m 0,-0.310059 v 0.310059 h -0.310058 v -0.310059 z m 0,-0.310058 v 0.310058 h -0.310058 v -0.310058 z m 0,-0.310059 v 0.310059 h -0.310058 v -0.310059 z m -2.480469,-0.620117 v 0.310059 h -0.310058 v -0.310059 z m 1.860352,0.620117 v 0.310059 h -0.310059 v -0.310059 z m -1.860352,0 v 0.310059 h -0.310058 v -0.310059 z m -0.930175,-0.310058 v 0.310058 H 37.76405 v -0.310058 z m 0.620117,-0.310059 v 0.310059 h -0.310059 v -0.310059 z m -0.310059,0.310059 v 0.310058 h -0.310058 v -0.310058 z m 0,-0.310059 v 0.310059 h -0.310058 v -0.310059 z m 1.860352,0 v 0.310059 H 39.93446 v -0.310059 z m 0,0.310059 v 0.310058 H 39.93446 v -0.310058 z m 2.17041,0.310058 v 0.310059 H 42.10487 v -0.310059 z m 0.310059,0 v 0.310059 h -0.310059 v -0.310059 z m 0.310058,0 v 0.310059 h -0.310058 v -0.310059 z m 0,-0.310058 v 0.310058 h -0.310058 v -0.310058 z m -0.310058,0 v 0.310058 h -0.310059 v -0.310058 z m 0.310058,-0.310059 v 0.310059 h -0.310058 v -0.310059 z m 0.310059,0 v 0.310059 h -0.310059 v -0.310059 z m 0.310058,0 v 0.310059 h -0.310058 v -0.310059 z m 0.310059,0 v 0.310059 h -0.310059 v -0.310059 z m 0.310059,0 v 0.310059 h -0.310059 v -0.310059 z m 0.310058,0 v 0.310059 h -0.310058 v -0.310059 z m 0,0.310059 v 0.310058 h -0.310058 v -0.310058 z m -0.310058,0 v 0.310058 h -0.310059 v -0.310058 z m -0.310059,0 v 0.310058 h -0.310059 v -0.310058 z m -0.310059,0 v 0.310058 h -0.310058 v -0.310058 z m -0.310058,0 v 0.310058 h -0.310059 v -0.310058 z m 1.550293,0 v 0.310058 h -0.310059 v -0.310058 z m 0,0.310058 v 0.310059 h -0.310059 v -0.310059 z m -0.310059,0 v 0.310059 h -0.310058 v -0.310059 z m 0.620117,0 v 0.310059 h -0.310058 v -0.310059 z m 0,0.310059 v 0.310058 h -0.310058 v -0.310058 z m -0.310058,0 v 0.310058 h -0.310059 v -0.310058 z m 0.310058,0.310058 v 0.310059 h -0.310058 v -0.310059 z m -0.310058,0.310059 v 0.310058 h -0.310059 v -0.310058 z m -0.310059,0 v 0.310058 h -0.310058 v -0.310058 z m -0.310058,0 v 0.310058 h -0.310059 v -0.310058 z m -0.310059,0 v 0.310058 h -0.310059 v -0.310058 z m -0.310059,0 v 0.310058 h -0.310058 v -0.310058 z m -0.310058,0 v 0.310058 h -0.310059 v -0.310058 z m -0.310059,0 v 0.310058 h -0.310058 v -0.310058 z m -0.310058,0 v 0.310058 h -0.310059 v -0.310058 z m -0.310059,0 v 0.310058 H 42.10487 v -0.310058 z m 0,-0.310059 v 0.310059 H 42.10487 v -0.310059 z m 0.310059,0 v 0.310059 h -0.310059 v -0.310059 z m -0.310059,-0.310058 v 0.310058 H 42.10487 v -0.310058 z m 0.310059,0 v 0.310058 h -0.310059 v -0.310058 z m -0.310059,0.930175 v 0.310059 H 42.10487 v -0.310059 z m 0,0.620118 v 0.310058 H 42.10487 v -0.310058 z m 0,0.310058 v 0.310059 H 42.10487 v -0.310059 z m 0.310059,0 v 0.310059 h -0.310059 v -0.310059 z m 0,-0.310058 v 0.310058 h -0.310059 v -0.310058 z m 0,-0.620118 v 0.310059 h -0.310059 v -0.310059 z m 0,1.240235 v 0.310058 h -0.310059 v -0.310058 z m 0.310058,-0.310059 v 0.310059 h -0.310058 v -0.310059 z m 0,0.310059 v 0.310058 h -0.310058 v -0.310058 z m 0,0.310058 v 0.310059 h -0.310058 v -0.310059 z m 0.310059,0 v 0.310059 h -0.310059 v -0.310059 z m 0,-0.310058 v 0.310058 h -0.310059 v -0.310058 z m 0.310058,0 v 0.310058 h -0.310058 v -0.310058 z m 0.310059,0 v 0.310058 h -0.310059 v -0.310058 z m 0.310059,0 v 0.310058 h -0.310059 v -0.310058 z m 0.310058,0 v 0.310058 h -0.310058 v -0.310058 z m 0,0.310058 v 0.310059 h -0.310058 v -0.310059 z m -0.310058,0 v 0.310059 h -0.310059 v -0.310059 z m -0.310059,0 v 0.310059 h -0.310059 v -0.310059 z m -0.310059,0 v 0.310059 h -0.310058 v -0.310059 z m 1.240235,-0.620117 v 0.310059 h -0.310059 v -0.310059 z m 0.310058,0 v 0.310059 h -0.310058 v -0.310059 z m -0.310058,0.310059 v 0.310058 h -0.310059 v -0.310058 z m 0,-1.860352 v 0.310059 h -0.310059 v -0.310059 z m -2.480469,0.930176 v 0.310059 H 42.10487 v -0.310059 z m 0.310059,0 v 0.310059 h -0.310059 v -0.310059 z m 1.860351,0.620117 v 0.310059 h -0.310058 v -0.310059 z m -1.550293,-0.930176 v 0.310059 h -0.310058 v -0.310059 z m 0.310059,0 v 0.310059 h -0.310059 v -0.310059 z m 0.310058,0 v 0.310059 h -0.310058 v -0.310059 z m 0.310059,0 v 0.310059 h -0.310059 v -0.310059 z m 0.310059,0 v 0.310059 h -0.310059 v -0.310059 z m 0.310058,0 v 0.310059 h -0.310058 v -0.310059 z m 0.310059,0 v 0.310059 h -0.310059 v -0.310059 z m 0.310058,-0.310058 v 0.310058 h -0.310058 v -0.310058 z m -0.310058,0.930176 v 0.310058 h -0.310059 v -0.310058 z m 0.310058,0 v 0.310058 h -0.310058 v -0.310058 z m 1.550293,-2.480469 v 0.310059 h -0.310058 v -0.310059 z m 0.310059,0 v 0.310059 h -0.310059 v -0.310059 z m 0.310059,0 v 0.310059 h -0.310059 v -0.310059 z m 0.310058,0 v 0.310059 h -0.310058 v -0.310059 z m 0.310059,0 v 0.310059 h -0.310059 v -0.310059 z m 0.310058,0 v 0.310059 h -0.310058 v -0.310059 z m 0,0.310059 v 0.310058 h -0.310058 v -0.310058 z m 0.310059,0 v 0.310058 h -0.310059 v -0.310058 z m 0,0.310058 v 0.310059 h -0.310059 v -0.310059 z m 0.310058,0 v 0.310059 h -0.310058 v -0.310059 z m -0.620117,0 v 0.310059 h -0.310058 v -0.310059 z m -0.310058,-0.310058 v 0.310058 h -0.310059 v -0.310058 z m -0.310059,0 v 0.310058 h -0.310058 v -0.310058 z m -0.310058,0 v 0.310058 h -0.310059 v -0.310058 z m -0.310059,0 v 0.310058 h -0.310059 v -0.310058 z m -0.310059,0 v 0.310058 h -0.310058 v -0.310058 z m -0.310058,0 v 0.310058 h -0.310059 v -0.310058 z m -0.310059,0.310058 v 0.310059 h -0.310058 v -0.310059 z m 0,0.310059 v 0.310058 h -0.310058 v -0.310058 z m 0.310059,0 v 0.310058 h -0.310059 v -0.310058 z m 0.310058,-0.310059 v 0.310059 h -0.310058 v -0.310059 z m -0.310058,0 v 0.310059 h -0.310059 v -0.310059 z m 0,0.620117 v 0.310059 h -0.310059 v -0.310059 z m 0.310058,0 v 0.310059 h -0.310058 v -0.310059 z m 0,0.310059 v 0.310058 h -0.310058 v -0.310058 z m 0.310059,-0.310059 v 0.310059 h -0.310059 v -0.310059 z m 0.310059,0.310059 v 0.310058 h -0.310059 v -0.310058 z m -0.310059,0 v 0.310058 h -0.310059 v -0.310058 z m 0.620117,0.310058 v 0.310059 h -0.310058 v -0.310059 z m 0.620117,0.310059 v 0.310059 h -0.310058 v -0.310059 z m 0.310059,0 v 0.310059 h -0.310059 v -0.310059 z m 0,0.310059 v 0.310058 h -0.310059 v -0.310058 z m 0,0.310058 v 0.310059 h -0.310059 v -0.310059 z m 0.310058,-0.310058 v 0.310058 h -0.310058 v -0.310058 z m 0,0.310058 v 0.310059 h -0.310058 v -0.310059 z m -0.310058,0.310059 v 0.310058 h -0.310059 v -0.310058 z m -0.310059,0 v 0.310058 h -0.310058 v -0.310058 z m -1.860351,-0.310059 v 0.310059 h -0.310059 v -0.310059 z m -0.310059,0 v 0.310059 h -0.310058 v -0.310059 z m 0.620117,0 v 0.310059 h -0.310058 v -0.310059 z m -0.310058,0.310059 v 0.310058 h -0.310059 v -0.310058 z m 0.310058,0 v 0.310058 h -0.310058 v -0.310058 z m 0,0.310058 v 0.310059 h -0.310058 v -0.310059 z m 0.310059,0 v 0.310059 h -0.310059 v -0.310059 z m 0.310059,0 v 0.310059 h -0.310059 v -0.310059 z m 0.310058,0 v 0.310059 h -0.310058 v -0.310059 z m 0.310059,0 v 0.310059 h -0.310059 v -0.310059 z m 0.310058,0 v 0.310059 h -0.310058 v -0.310059 z m -0.310058,-0.310058 v 0.310058 h -0.310059 v -0.310058 z m -0.310059,0 v 0.310058 h -0.310058 v -0.310058 z m -0.310058,0 v 0.310058 h -0.310059 v -0.310058 z m -0.310059,0 v 0.310058 h -0.310059 v -0.310058 z m 0.620117,-1.550293 v 0.310058 h -0.310058 v -0.310058 z m 0.310059,0.310058 v 0.310059 h -0.310059 v -0.310059 z m 0.310058,0 v 0.310059 h -0.310058 v -0.310059 z m -2.17041,-0.620117 v 0.310059 h -0.310058 v -0.310059 z m 2.790527,0.930176 v 0.310059 h -0.310058 v -0.310059 z m 0,-1.240234 v 0.310058 h -0.310058 v -0.310058 z m -0.310058,0 v 0.310058 h -0.310059 v -0.310058 z m -2.17041,1.550293 v 0.310058 h -0.310059 v -0.310058 z m -0.310059,0 v 0.310058 h -0.310058 v -0.310058 z m 1.860352,-0.310059 v 0.310059 h -0.310059 v -0.310059 z m -0.620117,-0.310059 v 0.310059 h -0.310059 v -0.310059 z m -0.930176,-0.310058 v 0.310058 h -0.310059 v -0.310058 z m 0.620117,0.310058 v 0.310059 h -0.310059 v -0.310059 z m 1.240234,0.930176 v 0.310059 h -0.310058 v -0.310059 z m 0.310059,-0.930176 v 0.310059 h -0.310059 v -0.310059 z m 6.465755,1.240235 h 0.930176 v 0.620117 h -2.480469 v -0.620117 h 0.930176 v -2.17041 h -0.930176 v -0.620117 h 0.930176 v -0.930176 h 0.310059 v -0.310059 h 1.240234 v 0.620117 h -0.930176 v 0.620118 h 0.930176 v 0.620117 h -0.930176 z m 2.480469,0 h 1.240234 v -0.310059 h 0.310059 v -1.860351 h -0.310059 v -0.310059 h -1.240234 v 0.310059 h -0.310058 v 1.860351 h 0.310058 z m -0.930176,-2.480469 h 0.310059 v -0.310058 h 0.310059 v -0.310059 h 1.860351 v 0.310059 h 0.310059 v 0.310058 h 0.310058 v 2.480469 h -0.310058 v 0.310058 h -0.310059 v 0.310059 h -1.860351 v -0.310059 h -0.310059 v -0.310058 h -0.310059 z m 4.340821,0.930176 v 2.17041 h -0.620118 v -3.720703 h 0.620118 v 0.620117 h 0.310058 v -0.310058 h 0.310059 v -0.310059 h 1.240234 v 0.310059 h 0.310059 v 0.310058 h 0.310058 v 0.930176 h -0.620117 v -0.620117 h -0.310058 v -0.310059 h -0.620118 v 0.310059 h -0.310058 v 0.310058 h -0.310059 v 0.310059 z m 7.395927,-1.550293 v 0.310059 h -0.310059 v -0.310059 z m 0.310059,0 v 0.310059 h -0.310059 v -0.310059 z m 0,0.310059 v 0.310058 h -0.310059 v -0.310058 z m 0,0.310058 v 0.310059 h -0.310059 v -0.310059 z m 0,0.310059 v 0.310058 h -0.310059 v -0.310058 z m 0,0.310058 v 0.310059 h -0.310059 v -0.310059 z m 0,0.310059 v 0.310058 h -0.310059 v -0.310058 z m 0,0.310058 v 0.310059 h -0.310059 v -0.310059 z m 0,0.310059 v 0.310059 h -0.310059 v -0.310059 z m 0,0.310059 v 0.310058 h -0.310059 v -0.310058 z m 0,0.310058 v 0.310059 h -0.310059 v -0.310059 z m -0.310059,0 v 0.310059 h -0.310059 v -0.310059 z m 0,-0.310058 v 0.310058 h -0.310059 v -0.310058 z m 0,-0.310059 v 0.310059 h -0.310059 v -0.310059 z m 0,-1.860351 v 0.310058 h -0.310059 v -0.310058 z m 0,0.310058 v 0.310059 h -0.310059 v -0.310059 z m 0,0.310059 v 0.310058 h -0.310059 v -0.310058 z m 0,0.310058 v 0.310059 h -0.310059 v -0.310059 z m 0,0.310059 v 0.310058 h -0.310059 v -0.310058 z m 0,0.310058 v 0.310059 h -0.310059 v -0.310059 z m 0.620117,0.930176 v 0.310059 h -0.310058 v -0.310059 z m 0,0.310059 v 0.310058 h -0.310058 v -0.310058 z m -0.310058,0 v 0.310058 h -0.310059 v -0.310058 z m 0.310058,0.310058 v 0.310059 h -0.310058 v -0.310059 z m 0.310059,0 v 0.310059 h -0.310059 v -0.310059 z m 0,-0.310058 v 0.310058 h -0.310059 v -0.310058 z m 0.310058,0 v 0.310058 h -0.310058 v -0.310058 z m 0.310059,-1.550293 v 0.310058 h -0.310059 v -0.310058 z m 0,0.310058 v 0.310059 h -0.310059 v -0.310059 z m 0,0.310059 v 0.310059 h -0.310059 v -0.310059 z m 0,0.310059 v 0.310058 h -0.310059 v -0.310058 z m 0,0.310058 v 0.310059 h -0.310059 v -0.310059 z m 0.310059,-1.240234 v 0.310058 H 69.91919 v -0.310058 z m 0,0.310058 v 0.310059 H 69.91919 v -0.310059 z m 0,0.310059 v 0.310059 H 69.91919 v -0.310059 z m 0,0.310059 v 0.310058 H 69.91919 v -0.310058 z m 0,0.310058 v 0.310059 H 69.91919 v -0.310059 z m 0.310058,0.310059 v 0.310058 h -0.310058 v -0.310058 z m 0.310059,0.310058 v 0.310059 h -0.310059 v -0.310059 z m 0.310058,0 v 0.310059 h -0.310058 v -0.310059 z m 0,-0.310058 v 0.310058 h -0.310058 v -0.310058 z m -0.310058,0 v 0.310058 h -0.310059 v -0.310058 z m 0.310058,-0.310059 v 0.310059 h -0.310058 v -0.310059 z m 0.310059,0.310059 v 0.310058 h -0.310059 v -0.310058 z m 0.310059,-0.310059 v 0.310059 h -0.310059 v -0.310059 z m -0.310059,0 v 0.310059 h -0.310059 v -0.310059 z m 0,-0.310058 v 0.310058 h -0.310059 v -0.310058 z m 0,-0.310059 v 0.310059 h -0.310059 v -0.310059 z m 0,-0.310059 v 0.310059 h -0.310059 v -0.310059 z m 0,-1.860351 v 0.310059 h -0.310059 v -0.310059 z m 0,0.310059 v 0.310058 h -0.310059 v -0.310058 z m 0,0.310058 v 0.310059 h -0.310059 v -0.310059 z m 0,0.310059 v 0.310058 h -0.310059 v -0.310058 z m 0,0.310058 v 0.310059 h -0.310059 v -0.310059 z m 0,0.310059 v 0.310058 h -0.310059 v -0.310058 z m 0.310059,0 v 0.310058 h -0.310059 v -0.310058 z m 0,0.310058 v 0.310059 h -0.310059 v -0.310059 z m 0,-1.860351 v 0.310059 h -0.310059 v -0.310059 z m 0,0.310059 v 0.310058 h -0.310059 v -0.310058 z m 0,0.310058 v 0.310059 h -0.310059 v -0.310059 z m 0,0.620117 v 0.310059 h -0.310059 v -0.310059 z m 0,0.930176 v 0.310059 h -0.310059 v -0.310059 z m 0,0.310059 v 0.310058 h -0.310059 v -0.310058 z m 0,-1.550293 v 0.310058 h -0.310059 v -0.310058 z m -2.170411,2.480468 v 0.310059 h -0.310058 v -0.310059 z m 0.930176,0 v 0.310059 h -0.310058 v -0.310059 z m -0.930176,-0.620117 v 0.310059 h -0.310058 v -0.310059 z m 0.930176,0 v 0.310059 h -0.310058 v -0.310059 z m 2.480469,-1.240234 v 2.17041 h -0.620117 v -3.720703 h 0.620117 v 0.620117 h 0.310059 v -0.310058 h 0.310058 v -0.310059 h 1.240235 v 0.310059 h 0.310058 v 0.310058 h 0.310059 v 0.930176 h -0.620117 v -0.620117 h -0.310059 v -0.310059 h -0.620117 v 0.310059 h -0.310059 v 0.310058 h -0.310058 v 0.310059 z m 4.34082,-2.17041 v 0.310058 h -0.310058 v -0.310058 z m 0,-0.310059 v 0.310059 h -0.310058 v -0.310059 z m 0.310059,0 v 0.310059 h -0.310059 v -0.310059 z m 0,0.310059 v 0.310058 h -0.310059 v -0.310058 z m -0.310059,0.310058 v 0.310059 h -0.310058 v -0.310059 z m 0.310059,0 v 0.310059 h -0.310059 v -0.310059 z m -0.620117,-0.310058 v 0.310058 h -0.310059 v -0.310058 z m 0.930175,0 v 0.310058 h -0.310058 v -0.310058 z m -0.620117,1.550293 v 0.310058 h -0.310058 v -0.310058 z m 0,0.310058 v 0.310059 h -0.310058 v -0.310059 z m 0.310059,0 v 0.310059 h -0.310059 v -0.310059 z m 0,-0.310058 v 0.310058 h -0.310059 v -0.310058 z m -0.310059,0.620117 v 0.310058 h -0.310058 v -0.310058 z m 0,0.310058 v 0.310059 h -0.310058 v -0.310059 z m 0,0.310059 v 0.310059 h -0.310058 v -0.310059 z m 0,0.310059 v 0.310058 h -0.310058 v -0.310058 z m 0,0.310058 v 0.310059 h -0.310058 v -0.310059 z m 0.310059,0 v 0.310059 h -0.310059 v -0.310059 z m 0,-0.310058 v 0.310058 h -0.310059 v -0.310058 z m 0,-0.310059 v 0.310059 h -0.310059 v -0.310059 z m 0,-0.310059 v 0.310059 h -0.310059 v -0.310059 z m 0,-0.310058 v 0.310058 h -0.310059 v -0.310058 z m 0,1.550293 v 0.310058 h -0.310059 v -0.310058 z m -0.310059,0 v 0.310058 h -0.310058 v -0.310058 z m 0.620117,0 v 0.310058 h -0.310058 v -0.310058 z m 0,0.310058 v 0.310059 h -0.310058 v -0.310059 z m -0.310058,0 v 0.310059 h -0.310059 v -0.310059 z m -0.310059,0 v 0.310059 h -0.310058 v -0.310059 z m 0.930176,-0.310058 v 0.310058 h -0.310059 v -0.310058 z m 0,0.310058 v 0.310059 h -0.310059 v -0.310059 z m 0.310059,0 v 0.310059 h -0.310059 v -0.310059 z m 0,-0.310058 v 0.310058 h -0.310059 v -0.310058 z m -2.17041,0 v 0.310058 h -0.310059 v -0.310058 z m 0,0.310058 v 0.310059 h -0.310059 v -0.310059 z m 0.310058,0 v 0.310059 h -0.310058 v -0.310059 z m 0.310059,0 v 0.310059 h -0.310059 v -0.310059 z m 0,-0.310058 v 0.310058 h -0.310059 v -0.310058 z m -0.310059,0 v 0.310058 h -0.310058 v -0.310058 z m 0.310059,-2.480469 v 0.310059 h -0.310059 v -0.310059 z m 0.310058,0 v 0.310059 h -0.310058 v -0.310059 z m 0.310059,0 v 0.310059 h -0.310059 v -0.310059 z m -0.620117,-0.310058 v 0.310058 h -0.310059 v -0.310058 z m 0.310058,0 v 0.310058 h -0.310058 v -0.310058 z m 0.310059,0 v 0.310058 h -0.310059 v -0.310058 z m -0.930176,0 v 0.310058 h -0.310058 v -0.310058 z m 0,0.310058 v 0.310059 h -0.310058 v -0.310059 z m 3.410645,-0.620117 v 0.310059 h -0.310059 v -0.310059 z m 0.310058,0 v 0.310059 h -0.310058 v -0.310059 z m 0.310059,0 v 0.310059 h -0.310059 v -0.310059 z m 0.310058,0 v 0.310059 h -0.310058 v -0.310059 z m 0.310059,0 v 0.310059 h -0.310059 v -0.310059 z m 0.310059,0 v 0.310059 h -0.310059 v -0.310059 z m 0,0.310059 v 0.310058 h -0.310059 v -0.310058 z m 0.310058,0 v 0.310058 h -0.310058 v -0.310058 z m 0,0.310058 v 0.310059 h -0.310058 v -0.310059 z m 0.310059,0 v 0.310059 h -0.310059 v -0.310059 z m -0.620117,0 v 0.310059 h -0.310059 v -0.310059 z m -0.310059,-0.310058 v 0.310058 h -0.310059 v -0.310058 z m -0.310059,0 v 0.310058 h -0.310058 v -0.310058 z m -0.310058,0 v 0.310058 h -0.310059 v -0.310058 z m -0.310059,0 v 0.310058 h -0.310058 v -0.310058 z m -0.310058,0 v 0.310058 h -0.310059 v -0.310058 z m -0.310059,0 v 0.310058 h -0.310059 v -0.310058 z m -0.310059,0.310058 v 0.310059 h -0.310058 v -0.310059 z m 0,0.310059 v 0.310058 h -0.310058 v -0.310058 z m 0.310059,0 v 0.310058 h -0.310059 v -0.310058 z m 0.310059,-0.310059 v 0.310059 h -0.310059 v -0.310059 z m -0.310059,0 v 0.310059 h -0.310059 v -0.310059 z m 0,0.620117 v 0.310059 h -0.310059 v -0.310059 z m 0.310059,0 v 0.310059 h -0.310059 v -0.310059 z m 0,0.310059 v 0.310058 h -0.310059 v -0.310058 z m 0.310058,-0.310059 v 0.310059 h -0.310058 v -0.310059 z m 0.310059,0.310059 v 0.310058 h -0.310059 v -0.310058 z m -0.310059,0 v 0.310058 h -0.310058 v -0.310058 z m 0.620117,0.310058 v 0.310059 h -0.310058 v -0.310059 z m 0.620118,0.310059 v 0.310059 h -0.310059 v -0.310059 z m 0.310058,0 v 0.310059 h -0.310058 v -0.310059 z m 0,0.310059 v 0.310058 h -0.310058 v -0.310058 z m 0,0.310058 v 0.310059 h -0.310058 v -0.310059 z m 0.310059,-0.310058 v 0.310058 h -0.310059 v -0.310058 z m 0,0.310058 v 0.310059 h -0.310059 v -0.310059 z m -0.310059,0.310059 v 0.310058 h -0.310058 v -0.310058 z m -0.310058,0 v 0.310058 h -0.310059 v -0.310058 z m -1.860352,-0.310059 v 0.310059 h -0.310059 v -0.310059 z m -0.310059,0 v 0.310059 h -0.310058 v -0.310059 z m 0.620118,0 v 0.310059 h -0.310059 v -0.310059 z m -0.310059,0.310059 v 0.310058 h -0.310059 v -0.310058 z m 0.310059,0 v 0.310058 h -0.310059 v -0.310058 z m 0,0.310058 v 0.310059 h -0.310059 v -0.310059 z m 0.310058,0 v 0.310059 h -0.310058 v -0.310059 z m 0.310059,0 v 0.310059 h -0.310059 v -0.310059 z m 0.310058,0 v 0.310059 h -0.310058 v -0.310059 z m 0.310059,0 v 0.310059 h -0.310059 v -0.310059 z m 0.310059,0 v 0.310059 h -0.310059 v -0.310059 z m -0.310059,-0.310058 v 0.310058 h -0.310059 v -0.310058 z m -0.310059,0 v 0.310058 h -0.310058 v -0.310058 z m -0.310058,0 v 0.310058 h -0.310059 v -0.310058 z m -0.310059,0 v 0.310058 h -0.310058 v -0.310058 z m 0.620117,-1.550293 v 0.310058 h -0.310058 v -0.310058 z m 0.310059,0.310058 v 0.310059 h -0.310059 v -0.310059 z m 0.310059,0 v 0.310059 h -0.310059 v -0.310059 z m -2.170411,-0.620117 v 0.310059 h -0.310058 v -0.310059 z m 2.790528,0.930176 v 0.310059 h -0.310059 v -0.310059 z m 0,-1.240234 v 0.310058 h -0.310059 v -0.310058 z m -0.310059,0 v 0.310058 h -0.310058 v -0.310058 z m -2.17041,1.550293 v 0.310058 h -0.310059 v -0.310058 z m -0.310059,0 v 0.310058 h -0.310058 v -0.310058 z m 1.860352,-0.310059 v 0.310059 h -0.310059 v -0.310059 z m -0.620117,-0.310059 v 0.310059 h -0.310059 v -0.310059 z m -0.930176,-0.310058 v 0.310058 h -0.310059 v -0.310058 z m 0.620117,0.310058 v 0.310059 h -0.310058 v -0.310059 z m 1.240235,0.930176 v 0.310059 h -0.310059 v -0.310059 z m 0.310058,-0.930176 v 0.310059 h -0.310058 v -0.310059 z m 2.17041,-2.480468 v 0.310058 h -0.310058 v -0.310058 z m 0,0.310058 v 0.310059 h -0.310058 v -0.310059 z m 0,0.310059 v 0.310059 h -0.310058 v -0.310059 z m 0.310059,0 v 0.310059 h -0.310059 v -0.310059 z m 0,-0.310059 v 0.310059 h -0.310059 v -0.310059 z m 0,-0.310058 v 0.310058 h -0.310059 v -0.310058 z m -0.930176,0.930176 v 0.310058 H 83.25171 v -0.310058 z m 0.310059,0 v 0.310058 h -0.310059 v -0.310058 z m 0.310058,0 v 0.310058 h -0.310058 v -0.310058 z m 0.310059,0 v 0.310058 h -0.310059 v -0.310058 z m 0.310059,0 v 0.310058 h -0.310059 v -0.310058 z m 0.310058,0 v 0.310058 h -0.310058 v -0.310058 z m 0.310059,0 v 0.310058 h -0.310059 v -0.310058 z m 0,0.310058 v 0.310059 h -0.310059 v -0.310059 z m -0.310059,0 v 0.310059 h -0.310058 v -0.310059 z m -0.310058,0 v 0.310059 h -0.310059 v -0.310059 z m -0.620118,0 v 0.310059 h -0.310058 v -0.310059 z m -0.310058,0 v 0.310059 h -0.310059 v -0.310059 z m -0.310059,0 v 0.310059 H 83.25171 v -0.310059 z m 0.930176,0 v 0.310059 h -0.310059 v -0.310059 z m 0,0.310059 v 0.310058 h -0.310059 v -0.310058 z m 0,0.310058 v 0.310059 h -0.310059 v -0.310059 z m 0,0.310059 v 0.310058 h -0.310059 v -0.310058 z m -0.310059,1.240234 v 0.310059 h -0.310058 v -0.310059 z m 0,-0.310058 v 0.310058 h -0.310058 v -0.310058 z m 0,-0.310059 v 0.310059 h -0.310058 v -0.310059 z m 0,-0.310059 v 0.310059 h -0.310058 v -0.310059 z m 0,-0.310058 v 0.310058 h -0.310058 v -0.310058 z m 0,-0.310059 v 0.310059 h -0.310058 v -0.310059 z m 0,-0.310058 v 0.310058 h -0.310058 v -0.310058 z m 0.310059,0.930175 v 0.310059 h -0.310059 v -0.310059 z m 0,1.240235 v 0.310058 h -0.310059 v -0.310058 z m 0.310059,0 v 0.310058 h -0.310059 v -0.310058 z m 0,0.310058 v 0.310059 h -0.310059 v -0.310059 z m 0.310058,0 v 0.310059 h -0.310058 v -0.310059 z m 0,-0.310058 v 0.310058 h -0.310058 v -0.310058 z m 0.310059,0 v 0.310058 h -0.310059 v -0.310058 z m 0,0.310058 v 0.310059 h -0.310059 v -0.310059 z m -0.930176,-0.620117 v 0.310059 h -0.310059 v -0.310059 z m 0,-0.620117 v 0.310059 h -0.310059 v -0.310059 z m 0,0.310059 v 0.310058 h -0.310059 v -0.310058 z m -0.310059,-3.410645 v 0.310059 h -0.310058 v -0.310059 z m 0.310059,0 v 0.310059 h -0.310059 v -0.310059 z m 1.240234,1.240235 v 0.310058 H 85.42212 v -0.310058 z m 0,0.310058 v 0.310059 H 85.42212 v -0.310059 z m 0,2.480469 v 0.310058 H 85.42212 v -0.310058 z m 0,0.310058 v 0.310059 H 85.42212 v -0.310059 z m -1.240234,0 v 0.310059 h -0.310059 v -0.310059 z m -0.310059,-0.310058 v 0.310058 H 83.871827 V 21.264414 Z M 83.25171,18.473887 v 0.310058 h -0.310059 v -0.310058 z m 0,0.310058 v 0.310059 h -0.310059 v -0.310059 z m 2.790527,2.480469 v 0.310058 h -0.310059 v -0.310058 z m 0,0.310058 v 0.310059 h -0.310059 v -0.310059 z m 3.410644,-0.620117 v 0.310059 h -0.310058 v 0.310058 h -0.310059 v 0.310059 H 87.59253 v -0.310059 h -0.310059 v 0.310059 h -0.620117 v -4.34082 h 0.620117 v 0.930176 h 0.310059 v -0.310059 h 1.240234 v 0.310059 h 0.310059 v 0.310058 h 0.310058 v 0.310059 h 0.310059 v 1.860351 z M 87.59253,20.644297 v 0.310058 h 0.310058 v 0.310059 h 0.620118 v -0.310059 h 0.310058 v -0.310058 h 0.310059 v -1.240235 h -0.310059 v -0.310058 h -0.310058 v -0.310059 h -0.620118 v 0.310059 H 87.59253 v 0.310058 h -0.310059 v 1.240235 z m 3.720703,-1.240235 v 0.310059 h -0.310059 v -0.310059 z m 0.310059,0 v 0.310059 h -0.310059 v -0.310059 z m 0.310058,0 v 0.310059 h -0.310058 v -0.310059 z m 0.310059,0 v 0.310059 H 91.93335 v -0.310059 z m 0.310058,0 v 0.310059 h -0.310058 v -0.310059 z m 0,0.310059 v 0.310058 h -0.310058 v -0.310058 z m -0.310058,0 v 0.310058 H 91.93335 v -0.310058 z m -0.310059,0 v 0.310058 h -0.310058 v -0.310058 z m -0.310058,0 v 0.310058 h -0.310059 v -0.310058 z m -0.310059,0 v 0.310058 h -0.310059 v -0.310058 z m -0.310059,0 v 0.310058 h -0.310058 v -0.310058 z m 0.310059,0.310058 v 0.310059 h -0.310059 v -0.310059 z m -0.310059,0 v 0.310059 h -0.310058 v -0.310059 z m -0.310058,0 v 0.310059 h -0.310059 v -0.310059 z m 0,0.310059 v 0.310059 h -0.310059 v -0.310059 z m 0.310058,0 v 0.310059 h -0.310058 v -0.310059 z m -0.310058,0.310059 v 0.310058 h -0.310059 v -0.310058 z m 0,0.310058 v 0.310059 h -0.310059 v -0.310059 z m 0.310058,0 v 0.310059 h -0.310058 v -0.310059 z m 0,-0.310058 v 0.310058 h -0.310058 v -0.310058 z m 0,0.620117 v 0.310058 h -0.310058 v -0.310058 z m 0.310059,0 v 0.310058 h -0.310059 v -0.310058 z m 0,-0.310059 v 0.310059 h -0.310059 v -0.310059 z m 0,0.620117 v 0.310059 h -0.310059 v -0.310059 z m 0.310059,0 v 0.310059 h -0.310059 v -0.310059 z m 0,-0.310058 v 0.310058 h -0.310059 v -0.310058 z m 0.310058,0 v 0.310058 h -0.310058 v -0.310058 z m 0.310059,0 v 0.310058 H 91.93335 v -0.310058 z m 0.310058,0 v 0.310058 h -0.310058 v -0.310058 z m 0,0.310058 v 0.310059 h -0.310058 v -0.310059 z m -0.310058,0 v 0.310059 H 91.93335 v -0.310059 z m -0.310059,0 v 0.310059 h -0.310058 v -0.310059 z m 0.930176,-0.620117 v 0.310059 h -0.310059 v -0.310059 z m 0,0.310059 v 0.310058 h -0.310059 v -0.310058 z m 0,-1.550293 v 0.310058 h -0.310059 v -0.310058 z m 0,0.310058 v 0.310059 h -0.310059 v -0.310059 z m 0.310059,-1.550292 v 0.310058 h -0.310059 v -0.310058 z m 0,0.310058 v 0.310059 h -0.310059 v -0.310059 z m 0,0.310059 v 0.310058 h -0.310059 v -0.310058 z m 0,0.310058 v 0.310059 h -0.310059 v -0.310059 z m 0,0.310059 v 0.310058 h -0.310059 v -0.310058 z m 0,0.310058 v 0.310059 h -0.310059 v -0.310059 z m 0,0.310059 v 0.310059 h -0.310059 v -0.310059 z m 0,0.310059 v 0.310058 h -0.310059 v -0.310058 z m 0,0.310058 v 0.310059 h -0.310059 v -0.310059 z m 0,0.310059 v 0.310058 h -0.310059 v -0.310058 z m 0,0.310058 v 0.310059 h -0.310059 v -0.310059 z m 0.310058,-2.790527 v 0.310059 h -0.310058 v -0.310059 z m 0,0.310059 v 0.310058 h -0.310058 v -0.310058 z m 0,0.310058 v 0.310059 h -0.310058 v -0.310059 z m 0,0.310059 v 0.310058 h -0.310058 v -0.310058 z m 0,0.310058 v 0.310059 h -0.310058 v -0.310059 z m 0,0.310059 v 0.310059 h -0.310058 v -0.310059 z m 0,0.310059 v 0.310058 h -0.310058 v -0.310058 z m 0,0.310058 v 0.310059 h -0.310058 v -0.310059 z m 0,0.310059 v 0.310058 h -0.310058 v -0.310058 z m 0,0.310058 v 0.310059 h -0.310058 v -0.310059 z m -0.620117,-2.790527 v 0.310059 h -0.310059 v -0.310059 z m 0,-0.310058 v 0.310058 h -0.310059 v -0.310058 z m -1.240234,-0.310059 v 0.310059 h -0.310059 v -0.310059 z m 0.620117,0 v 0.310059 H 91.93335 v -0.310059 z m 0.310058,0 v 0.310059 h -0.310058 v -0.310059 z m 0.310059,0 v 0.310059 h -0.310059 v -0.310059 z m -0.930176,0 v 0.310059 h -0.310058 v -0.310059 z m -0.620117,0.310059 v 0.310058 h -0.310059 v -0.310058 z m 0.310059,0 v 0.310058 h -0.310059 v -0.310058 z m 0.620117,0 v 0.310058 H 91.93335 v -0.310058 z m 0.310058,0 v 0.310058 h -0.310058 v -0.310058 z m -0.620117,0 v 0.310058 h -0.310058 v -0.310058 z m -0.620117,-0.310059 v 0.310059 h -0.310059 v -0.310059 z m -0.310059,0.310059 v 0.310058 h -0.310058 v -0.310058 z m 0,-0.310059 v 0.310059 h -0.310058 v -0.310059 z m 3.720704,0.930176 v 2.790527 H 94.10376 v -3.720703 h 0.620118 v 0.310059 h 0.310058 v -0.310059 h 1.550293 v 0.310059 h 0.310059 v 0.310058 h 0.310058 v 3.100586 H 96.584229 V 19.094004 H 96.27417 v -0.310059 h -1.240234 v 0.310059 z m 3.720703,0 v 0.310058 h -0.310059 v -0.310058 z m -0.310059,0 v 0.310058 h -0.310059 v -0.310058 z m 0.310059,-0.310059 v 0.310059 h -0.310059 v -0.310059 z m 0.310058,-0.310058 v 0.310058 h -0.310058 v -0.310058 z m 0,0.310058 v 0.310059 h -0.310058 v -0.310059 z m 0.310059,-0.310058 v 0.310058 h -0.310059 v -0.310058 z m 0.310058,0 v 0.310058 h -0.310058 v -0.310058 z m 0.310059,0 v 0.310058 h -0.310059 v -0.310058 z m 0,-0.310059 v 0.310059 h -0.310059 v -0.310059 z m -0.310059,0 v 0.310059 h -0.310058 v -0.310059 z m -0.310058,0 v 0.310059 h -0.310059 v -0.310059 z m -0.930176,1.240234 v 0.310059 h -0.310059 v -0.310059 z m 0.310059,0 v 0.310059 h -0.310059 v -0.310059 z m 0,0.310059 v 0.310058 h -0.310059 v -0.310058 z m -0.310059,0 v 0.310058 h -0.310059 v -0.310058 z m 0,0.310058 v 0.310059 h -0.310059 v -0.310059 z m 0,0.310059 v 0.310059 h -0.310059 v -0.310059 z m 0,0.310059 v 0.310058 h -0.310059 v -0.310058 z m 0.310059,0.310058 v 0.310059 h -0.310059 v -0.310059 z m 0.620117,0.310059 v 0.310058 h -0.310059 v -0.310058 z m 0,0.310058 v 0.310059 h -0.310059 v -0.310059 z m 0.310058,0 v 0.310059 h -0.310058 v -0.310059 z m 0.310059,0 v 0.310059 h -0.310059 v -0.310059 z m 0,-0.310058 v 0.310058 h -0.310059 v -0.310058 z m 0.310059,0 v 0.310058 h -0.310059 v -0.310058 z m 0,0.310058 v 0.310059 h -0.310059 v -0.310059 z m -0.620118,-0.310058 v 0.310058 h -0.310058 v -0.310058 z m -0.620117,-0.310059 v 0.310059 h -0.310058 v -0.310059 z m -0.310058,-0.310058 v 0.310058 h -0.310059 v -0.310058 z m 0,-0.310059 v 0.310059 h -0.310059 v -0.310059 z m 0,-0.310059 v 0.310059 h -0.310059 v -0.310059 z m 1.550293,0.930176 v 0.310059 h -0.310059 v -0.310059 z m 0.310056,0 v 0.310059 h -0.310056 v -0.310059 z m 0,0.310059 v 0.310058 h -0.310056 v -0.310058 z m 0.31006,0.310058 v 0.310059 h -0.31006 v -0.310059 z m 0,-0.310058 v 0.310058 h -0.31006 v -0.310058 z m 0,-0.310059 v 0.310059 h -0.31006 v -0.310059 z m 0,-0.310058 v 0.310058 h -0.31006 v -0.310058 z m 0,-0.310059 v 0.310059 h -0.31006 v -0.310059 z m 0,-0.310059 v 0.310059 h -0.31006 v -0.310059 z m 0,-0.310058 v 0.310058 h -0.31006 v -0.310058 z m 0,-0.310059 v 0.310059 h -0.31006 v -0.310059 z m 0,-0.310058 v 0.310058 h -0.31006 v -0.310058 z m 0,-0.310059 v 0.310059 h -0.31006 v -0.310059 z m 0,-0.310058 v 0.310058 h -0.31006 v -0.310058 z m 0,-0.310059 v 0.310059 h -0.31006 v -0.310059 z m 0,-0.310059 v 0.310059 h -0.31006 v -0.310059 z m 0,-0.310058 v 0.310058 h -0.31006 v -0.310058 z m 0.31006,4.030761 v 0.310059 h -0.31006 v -0.310059 z m 0,-0.310058 v 0.310058 h -0.31006 v -0.310058 z m 0,-0.310059 v 0.310059 h -0.31006 v -0.310059 z m 0,-0.310058 v 0.310058 h -0.31006 v -0.310058 z m 0,-0.310059 v 0.310059 h -0.31006 v -0.310059 z m 0,-0.310059 v 0.310059 h -0.31006 v -0.310059 z m 0,-0.310058 v 0.310058 h -0.31006 v -0.310058 z m 0,-0.310059 v 0.310059 h -0.31006 v -0.310059 z m 0,-0.310058 v 0.310058 h -0.31006 v -0.310058 z m 0,-0.310059 v 0.310059 h -0.31006 v -0.310059 z m 0,-0.310058 v 0.310058 h -0.31006 v -0.310058 z m 0,-0.310059 v 0.310059 h -0.31006 v -0.310059 z m 0,-0.310059 v 0.310059 h -0.31006 v -0.310059 z m 0,-0.310058 v 0.310058 h -0.31006 v -0.310058 z m -0.930176,1.240234 v 0.310059 h -0.310059 v -0.310059 z m 0,-0.310058 v 0.310058 h -0.310059 v -0.310058 z m 0.310056,0 v 0.310058 h -0.310056 v -0.310058 z m 0,0.310058 v 0.310059 h -0.310056 v -0.310059 z m 0,0.310059 v 0.310058 h -0.310056 v -0.310058 z m 0,1.550293 v 0.310058 h -0.310056 v -0.310058 z m -0.310056,-2.480469 v 0.310059 h -0.310059 v -0.310059 z m -1.240235,3.100586 v 0.310058 h -0.310058 v -0.310058 z m 0.310059,-0.310059 v 0.310059 h -0.310059 v -0.310059 z m -0.310059,-0.310058 v 0.310058 h -0.310058 v -0.310058 z m 0,-1.550293 v 0.310058 h -0.310058 v -0.310058 z m 0.310059,-0.310059 v 0.310059 h -0.310059 v -0.310059 z m 6.775822,-0.620117 v 0.310059 h -0.31006 v -0.310059 z m 0,0.310059 v 0.310058 h -0.31006 v -0.310058 z m 0,0.310058 v 0.310059 h -0.31006 v -0.310059 z m 0,0.310059 v 0.310058 h -0.31006 v -0.310058 z m 0,0.310058 v 0.310059 h -0.31006 v -0.310059 z m 0,0.310059 v 0.310058 h -0.31006 v -0.310058 z m 0,0.310058 v 0.310059 h -0.31006 v -0.310059 z m 0.31005,0.310059 v 0.310059 h -0.31005 v -0.310059 z m 0,0.310059 v 0.310058 h -0.31005 v -0.310058 z m 0,0.310058 v 0.310059 h -0.31005 v -0.310059 z m 0,0.310059 v 0.310058 h -0.31005 v -0.310058 z m 0,0.310058 v 0.310059 h -0.31005 v -0.310059 z m 0,0.310059 v 0.310059 h -0.31005 v -0.310059 z m 0,0.310059 v 0.310058 h -0.31005 V 22.19459 Z m -0.31005,0 v 0.310058 h -0.31006 V 22.19459 Z m 0,0.310058 v 0.310059 h -0.31006 v -0.310059 z m 0,-0.620117 v 0.310059 h -0.31006 v -0.310059 z m 0,-0.310059 v 0.310059 h -0.31006 v -0.310059 z m 0,-0.310058 v 0.310058 h -0.31006 v -0.310058 z m 0,-0.310059 v 0.310059 h -0.31006 v -0.310059 z m 0,-0.310058 v 0.310058 h -0.31006 v -0.310058 z m 0,-0.310059 v 0.310059 h -0.31006 v -0.310059 z m 0.31005,2.17041 v 0.310059 h -0.31005 v -0.310059 z m 0,-2.480469 v 0.310059 h -0.31005 v -0.310059 z m 0,-0.310058 v 0.310058 h -0.31005 v -0.310058 z m 0,-0.310059 v 0.310059 h -0.31005 v -0.310059 z m 0,-0.310058 v 0.310058 h -0.31005 v -0.310058 z m 0,-0.310059 v 0.310059 h -0.31005 v -0.310059 z m 0,-0.310058 v 0.310058 h -0.31005 v -0.310058 z m 0,-0.310059 v 0.310059 h -0.31005 v -0.310059 z m 0.31006,0.310059 v 0.310058 h -0.31006 v -0.310058 z m 0.31006,-0.310059 v 0.310059 h -0.31006 v -0.310059 z m 0,0.310059 v 0.310058 h -0.31006 v -0.310058 z m 0,0.310058 v 0.310059 h -0.31006 v -0.310059 z m -0.31006,0 v 0.310059 h -0.31006 v -0.310059 z m 0,0.310059 v 0.310058 h -0.31006 v -0.310058 z m 0,1.860351 v 0.310059 h -0.31006 v -0.310059 z m 0,0.310059 v 0.310058 h -0.31006 v -0.310058 z m 0.31006,0 v 0.310058 h -0.31006 v -0.310058 z m 0.31006,0 v 0.310058 h -0.31006 v -0.310058 z m -0.31006,0.310058 v 0.310059 h -0.31006 v -0.310059 z m 0,-0.620117 v 0.310059 h -0.31006 v -0.310059 z m 0.31006,0.620117 v 0.310059 h -0.31006 v -0.310059 z m 0.31006,-0.310058 v 0.310058 h -0.31006 v -0.310058 z m 0.31006,0 v 0.310058 h -0.31006 v -0.310058 z m 0,0.310058 v 0.310059 h -0.31006 v -0.310059 z m -0.31006,0 v 0.310059 h -0.31006 v -0.310059 z m 0.62012,-0.310058 v 0.310058 h -0.31006 v -0.310058 z m 0,-0.310059 v 0.310059 h -0.31006 v -0.310059 z m 0.31005,0 v 0.310059 h -0.31005 v -0.310059 z m 0,-1.240234 v 0.310058 h -0.31005 v -0.310058 z m 0,-0.310059 v 0.310059 h -0.31005 v -0.310059 z m 0,-0.310058 v 0.310058 h -0.31005 v -0.310058 z m 0,-0.310059 v 0.310059 h -0.31005 v -0.310059 z m -0.31005,-0.310058 v 0.310058 h -0.31006 v -0.310058 z m 0,0.310058 v 0.310059 h -0.31006 v -0.310059 z m -0.31006,-0.310058 v 0.310058 h -0.31006 v -0.310058 z m -0.31006,0 v 0.310058 h -0.31006 v -0.310058 z m -0.31006,0 v 0.310058 h -0.31006 v -0.310058 z m 0,-0.310059 v 0.310059 h -0.31006 v -0.310059 z m 0.31006,0 v 0.310059 h -0.31006 v -0.310059 z m 0.31006,0 v 0.310059 h -0.31006 v -0.310059 z m -1.24024,2.480469 v 0.310058 h -0.31006 v -0.310058 z m 1.86035,-0.620118 v 0.310059 h -0.31005 v -0.310059 z m 0,0.310059 v 0.310059 h -0.31005 v -0.310059 z m 0,0.310059 v 0.310058 h -0.31005 v -0.310058 z m -0.31005,0 v 0.310058 h -0.31006 v -0.310058 z m -0.31006,0.310058 v 0.310059 h -0.31006 v -0.310059 z m 0,-2.17041 v 0.310059 h -0.31006 v -0.310059 z m 0.31006,0.310059 v 0.310058 h -0.31006 v -0.310058 z m 0.62011,0 v 0.310058 h -0.31006 v -0.310058 z m 0,0.310058 v 0.310059 h -0.31006 v -0.310059 z m 0,0.310059 v 0.310058 h -0.31006 v -0.310058 z m 0,0.310058 v 0.310059 h -0.31006 v -0.310059 z m 0,0.310059 v 0.310059 h -0.31006 v -0.310059 z m 0,0.310059 v 0.310058 h -0.31006 v -0.310058 z m 1.86035,-3.100586 v 0.310058 h -0.31005 v -0.310058 z m 0,-0.310059 v 0.310059 h -0.31005 v -0.310059 z m 0.31006,0 v 0.310059 h -0.31006 v -0.310059 z m 0,0.310059 v 0.310058 h -0.31006 v -0.310058 z m -0.31006,0.310058 v 0.310059 h -0.31005 v -0.310059 z m 0.31006,0 v 0.310059 h -0.31006 v -0.310059 z m -0.62011,-0.310058 v 0.310058 h -0.31006 v -0.310058 z m 0.93017,0 v 0.310058 h -0.31006 v -0.310058 z m -0.62012,1.550293 v 0.310058 h -0.31005 v -0.310058 z m 0,0.310058 v 0.310059 h -0.31005 v -0.310059 z m 0.31006,0 v 0.310059 h -0.31006 v -0.310059 z m 0,-0.310058 v 0.310058 h -0.31006 v -0.310058 z m -0.31006,0.620117 v 0.310058 h -0.31005 v -0.310058 z m 0,0.310058 v 0.310059 h -0.31005 v -0.310059 z m 0,0.310059 v 0.310059 h -0.31005 v -0.310059 z m 0,0.310059 v 0.310058 h -0.31005 v -0.310058 z m 0,0.310058 v 0.310059 h -0.31005 v -0.310059 z m 0.31006,0 v 0.310059 h -0.31006 v -0.310059 z m 0,-0.310058 v 0.310058 h -0.31006 v -0.310058 z m 0,-0.310059 v 0.310059 h -0.31006 v -0.310059 z m 0,-0.310059 v 0.310059 h -0.31006 v -0.310059 z m 0,-0.310058 v 0.310058 h -0.31006 v -0.310058 z m 0,1.550293 v 0.310058 h -0.31006 v -0.310058 z m -0.31006,0 v 0.310058 h -0.31005 v -0.310058 z m 0.62012,0 v 0.310058 h -0.31006 v -0.310058 z m 0,0.310058 v 0.310059 h -0.31006 v -0.310059 z m -0.31006,0 v 0.310059 h -0.31006 v -0.310059 z m -0.31006,0 v 0.310059 h -0.31005 v -0.310059 z m 0.93018,-0.310058 v 0.310058 h -0.31006 v -0.310058 z m 0,0.310058 v 0.310059 h -0.31006 v -0.310059 z m 0.31006,0 v 0.310059 h -0.31006 v -0.310059 z m 0,-0.310058 v 0.310058 h -0.31006 v -0.310058 z m -2.17041,0 v 0.310058 h -0.31006 v -0.310058 z m 0,0.310058 v 0.310059 h -0.31006 v -0.310059 z m 0.31006,0 v 0.310059 h -0.31006 v -0.310059 z m 0.31006,0 v 0.310059 h -0.31006 v -0.310059 z m 0,-0.310058 v 0.310058 h -0.31006 v -0.310058 z m -0.31006,0 v 0.310058 h -0.31006 v -0.310058 z m 0.31006,-2.480469 v 0.310059 h -0.31006 v -0.310059 z m 0.31005,0 v 0.310059 h -0.31005 v -0.310059 z m 0.31006,0 v 0.310059 h -0.31006 v -0.310059 z m -0.62011,-0.310058 v 0.310058 h -0.31006 v -0.310058 z m 0.31005,0 v 0.310058 h -0.31005 v -0.310058 z m 0.31006,0 v 0.310058 h -0.31006 v -0.310058 z m -0.93017,0 v 0.310058 h -0.31006 v -0.310058 z m 0,0.310058 v 0.310059 h -0.31006 v -0.310059 z m 4.96093,2.17041 v -0.310058 h 0.62012 v 0.620117 h -0.31006 v 0.310058 h -0.31006 v 0.310059 h -1.86035 v -0.310059 h -0.31006 v -0.310058 h -0.31005 v -2.480469 h 0.31005 v -0.310058 h 0.31006 v -0.310059 h 1.86035 v 0.310059 h 0.31006 v 0.310058 h 0.31006 v 0.620117 h -0.62012 v -0.310058 h -0.31005 v -0.310059 h -1.24024 v 0.310059 h -0.31006 v 1.860351 h 0.31006 v 0.310059 h 1.24024 v -0.310059 z m 1.5503,-3.410644 v 0.310058 h -0.31006 v -0.310058 z m 0,0.310058 v 0.310059 h -0.31006 v -0.310059 z m 0,0.310059 v 0.310059 h -0.31006 v -0.310059 z m 0,0.310059 v 0.310058 h -0.31006 v -0.310058 z m 0,0.310058 v 0.310059 h -0.31006 v -0.310059 z m 0,0.310059 v 0.310058 h -0.31006 v -0.310058 z m 0,0.310058 v 0.310059 h -0.31006 v -0.310059 z m 0,0.620117 v 0.310059 h -0.31006 v -0.310059 z m 0,0.310059 v 0.310059 h -0.31006 v -0.310059 z m 0,0.310059 v 0.310058 h -0.31006 v -0.310058 z m 0,0.310058 v 0.310059 h -0.31006 v -0.310059 z m 0,0.310059 v 0.310058 h -0.31006 v -0.310058 z m 0,0.310058 v 0.310059 h -0.31006 v -0.310059 z m 0.31006,-1.860351 v 0.310058 h -0.31006 v -0.310058 z m 0,-2.17041 v 0.310058 h -0.31006 v -0.310058 z m 0,0.310058 v 0.310059 h -0.31006 v -0.310059 z m 0,0.310059 v 0.310059 h -0.31006 v -0.310059 z m 0,0.310059 v 0.310058 h -0.31006 v -0.310058 z m 0,0.310058 v 0.310059 h -0.31006 v -0.310059 z m 0,0.310059 v 0.310058 h -0.31006 v -0.310058 z m 0,0.310058 v 0.310059 h -0.31006 v -0.310059 z m -0.31006,0.310059 v 0.310058 h -0.31006 v -0.310058 z m 0.31006,0.310058 v 0.310059 h -0.31006 v -0.310059 z m 0,0.310059 v 0.310059 h -0.31006 v -0.310059 z m 0,0.620117 v 0.310059 h -0.31006 v -0.310059 z m 0,0.310059 v 0.310058 h -0.31006 v -0.310058 z m 0,0.310058 v 0.310059 h -0.31006 v -0.310059 z m 0.93017,-1.550293 v 0.310059 h -0.31006 v -0.310059 z m 0.31006,-0.310058 v 0.310058 h -0.31006 v -0.310058 z m 0,0.310058 v 0.310059 h -0.31006 v -0.310059 z m 0,0.310059 v 0.310059 h -0.31006 v -0.310059 z m 0.31006,-0.930176 v 0.310059 h -0.31006 v -0.310059 z m 0,0.930176 v 0.310059 h -0.31006 v -0.310059 z m 0,0.310059 v 0.310058 h -0.31006 v -0.310058 z m 0.31006,0 v 0.310058 h -0.31006 v -0.310058 z m 0,0.310058 v 0.310059 h -0.31006 v -0.310059 z m 0.31006,0 v 0.310059 h -0.31006 v -0.310059 z m 0,0.310059 v 0.310058 h -0.31006 v -0.310058 z m 0.31006,0 v 0.310058 h -0.31006 v -0.310058 z m 0,0.310058 v 0.310059 h -0.31006 v -0.310059 z m 0,-3.100585 v 0.310058 h -0.31006 v -0.310058 z m -0.31006,0.310058 v 0.310059 h -0.31006 v -0.310059 z m -0.31006,0.310059 v 0.310058 h -0.31006 v -0.310058 z m 0.31006,-0.620117 v 0.310058 h -0.31006 v -0.310058 z m 0.31006,-0.310059 v 0.310059 h -0.31006 v -0.310059 z m -1.24024,1.240234 v 0.310059 h -0.31006 v -0.310059 z m 0.31006,-0.310058 v 0.310058 h -0.31006 v -0.310058 z m 0.31006,-0.310059 v 0.310059 h -0.31006 v -0.310059 z m -0.93018,0.930176 v 0.310058 h -0.31006 v -0.310058 z m -0.31006,0 v 0.310058 h -0.31005 v -0.310058 z m 0,0.310058 v 0.310059 h -0.31005 v -0.310059 z m -0.62011,0.620118 v 0.310058 h -0.31006 v -0.310058 z m 0.93017,-1.240235 v 0.310059 h -0.31006 v -0.310059 z m 0.31006,-0.310058 v 0.310058 h -0.31006 v -0.310058 z m 0.31006,-0.310059 v 0.310059 h -0.31006 v -0.310059 z m 0.31006,-0.310058 v 0.310058 h -0.31006 v -0.310058 z m 0.31006,-0.310059 v 0.310059 h -0.31006 v -0.310059 z m -1.24024,2.17041 v 0.310059 h -0.31006 v -0.310059 z m 0.31006,0.310059 v 0.310058 h -0.31006 v -0.310058 z m 0.31006,0.310058 v 0.310059 h -0.31006 v -0.310059 z m 0.31006,0.310059 v 0.310058 h -0.31006 v -0.310058 z m 0.31006,0.310058 v 0.310059 h -0.31006 v -0.310059 z m -1.86035,-1.860351 v 0.310058 h -0.31006 v -0.310058 z m 0,0.310058 v 0.310059 h -0.31006 v -0.310059 z m 3.10058,-1.860351 v 0.310059 h -0.31006 v -0.310059 z m 0,0.310059 v 0.310058 h -0.31006 v -0.310058 z m 0,0.310058 v 0.310059 h -0.31006 v -0.310059 z m 0,0.310059 v 0.310058 h -0.31006 v -0.310058 z m 0,0.310058 v 0.310059 h -0.31006 v -0.310059 z m 0,0.310059 v 0.310058 h -0.31006 v -0.310058 z m 0,0.310058 v 0.310059 h -0.31006 v -0.310059 z m 0,0.310059 v 0.310059 h -0.31006 v -0.310059 z m 0,0.310059 v 0.310058 h -0.31006 v -0.310058 z m 0,0.310058 v 0.310059 h -0.31006 v -0.310059 z m 0.31006,-2.790527 v 0.310059 h -0.31006 v -0.310059 z m 0,0.310059 v 0.310058 h -0.31006 v -0.310058 z m 0,0.310058 v 0.310059 h -0.31006 v -0.310059 z m 0,0.310059 v 0.310058 h -0.31006 v -0.310058 z m 0,0.310058 v 0.310059 h -0.31006 v -0.310059 z m 0,0.310059 v 0.310058 h -0.31006 v -0.310058 z m 0,0.310058 v 0.310059 h -0.31006 v -0.310059 z m 0,0.310059 v 0.310059 h -0.31006 v -0.310059 z m 0,0.310059 v 0.310058 h -0.31006 v -0.310058 z m 0,0.310058 v 0.310059 h -0.31006 v -0.310059 z m 0,0.310059 v 0.310058 h -0.31006 v -0.310058 z m 0.31006,-0.310059 v 0.310059 h -0.31006 v -0.310059 z m 0,0.310059 v 0.310058 h -0.31006 v -0.310058 z m 0,0.310058 v 0.310059 h -0.31006 v -0.310059 z m 0.31006,-0.310058 v 0.310058 h -0.31006 v -0.310058 z m 0,0.310058 v 0.310059 h -0.31006 v -0.310059 z m 0.31006,-0.310058 v 0.310058 h -0.31006 v -0.310058 z m 0,0.310058 v 0.310059 h -0.31006 v -0.310059 z m 0.31005,-0.310058 v 0.310058 h -0.31005 v -0.310058 z m 0,0.310058 v 0.310059 h -0.31005 v -0.310059 z m 0.31006,-0.310058 v 0.310058 h -0.31006 v -0.310058 z m 0,0.310058 v 0.310059 h -0.31006 v -0.310059 z m 0.31006,-0.620117 v 0.310059 h -0.31006 v -0.310059 z m 0,0.310059 v 0.310058 h -0.31006 v -0.310058 z m 0,0.310058 v 0.310059 h -0.31006 v -0.310059 z m 0.31006,-3.410644 v 0.310059 h -0.31006 v -0.310059 z m 0,0.310059 v 0.310058 h -0.31006 v -0.310058 z m 0,0.310058 v 0.310059 h -0.31006 v -0.310059 z m 0,0.310059 v 0.310058 h -0.31006 v -0.310058 z m 0,0.310058 v 0.310059 h -0.31006 v -0.310059 z m 0,0.310059 v 0.310058 h -0.31006 v -0.310058 z m 0,0.310058 v 0.310059 h -0.31006 v -0.310059 z m 0,0.310059 v 0.310059 h -0.31006 v -0.310059 z m 0,0.310059 v 0.310058 h -0.31006 v -0.310058 z m 0,0.310058 v 0.310059 h -0.31006 v -0.310059 z m 0,0.310059 v 0.310058 h -0.31006 v -0.310058 z m 0.31006,-3.100586 v 0.310059 h -0.31006 v -0.310059 z m 0,0.310059 v 0.310058 h -0.31006 v -0.310058 z m 0,0.310058 v 0.310059 h -0.31006 v -0.310059 z m 0,0.310059 v 0.310058 h -0.31006 v -0.310058 z m 0,0.310058 v 0.310059 h -0.31006 v -0.310059 z m 0,0.310059 v 0.310058 h -0.31006 v -0.310058 z m 0,0.310058 v 0.310059 h -0.31006 v -0.310059 z m 0,0.310059 v 0.310059 h -0.31006 v -0.310059 z m 0,0.310059 v 0.310058 h -0.31006 v -0.310058 z m 0,0.310058 v 0.310059 h -0.31006 v -0.310059 z m 0.93017,-2.790527 v 0.310059 h -0.31005 v -0.310059 z m 0,0.310059 v 0.310058 h -0.31005 v -0.310058 z m 0,0.310058 v 0.310059 h -0.31005 v -0.310059 z m 0,0.310059 v 0.310058 h -0.31005 v -0.310058 z m 0,0.310058 v 0.310059 h -0.31005 v -0.310059 z m 0,0.310059 v 0.310058 h -0.31005 v -0.310058 z m 0,0.310058 v 0.310059 h -0.31005 v -0.310059 z m 0.31006,0.310059 v 0.310059 h -0.31006 v -0.310059 z m 0,0.310059 v 0.310058 h -0.31006 v -0.310058 z m 0,0.310058 v 0.310059 h -0.31006 v -0.310059 z m 0,0.310059 v 0.310058 h -0.31006 v -0.310058 z m 0,0.310058 v 0.310059 h -0.31006 v -0.310059 z m 0,0.310059 v 0.310059 h -0.31006 v -0.310059 z m 0,0.310059 v 0.310058 h -0.31006 V 22.19459 Z m -0.31006,0 v 0.310058 h -0.31005 V 22.19459 Z m 0,0.310058 v 0.310059 h -0.31005 v -0.310059 z m 0,-0.620117 v 0.310059 h -0.31005 v -0.310059 z m 0,-0.310059 v 0.310059 h -0.31005 v -0.310059 z m 0,-0.310058 v 0.310058 h -0.31005 v -0.310058 z m 0,-0.310059 v 0.310059 h -0.31005 v -0.310059 z m 0,-0.310058 v 0.310058 h -0.31005 v -0.310058 z m 0,-0.310059 v 0.310059 h -0.31005 v -0.310059 z m 0.31006,2.17041 v 0.310059 h -0.31006 v -0.310059 z m 0,-2.480469 v 0.310059 h -0.31006 v -0.310059 z m 0,-0.310058 v 0.310058 h -0.31006 v -0.310058 z m 0,-0.310059 v 0.310059 h -0.31006 v -0.310059 z m 0,-0.310058 v 0.310058 h -0.31006 v -0.310058 z m 0,-0.310059 v 0.310059 h -0.31006 v -0.310059 z m 0,-0.310058 v 0.310058 h -0.31006 v -0.310058 z m 0,-0.310059 v 0.310059 h -0.31006 v -0.310059 z m 0.31006,0.310059 v 0.310058 h -0.31006 v -0.310058 z m 0.31006,-0.310059 v 0.310059 h -0.31006 v -0.310059 z m 0,0.310059 v 0.310058 h -0.31006 v -0.310058 z m 0,0.310058 v 0.310059 h -0.31006 v -0.310059 z m -0.31006,0 v 0.310059 h -0.31006 v -0.310059 z m 0,0.310059 v 0.310058 h -0.31006 v -0.310058 z m 0,1.860351 v 0.310059 h -0.31006 v -0.310059 z m 0,0.310059 v 0.310058 h -0.31006 v -0.310058 z m 0.31006,0 v 0.310058 h -0.31006 v -0.310058 z m 0.31006,0 v 0.310058 h -0.31006 v -0.310058 z m -0.31006,0.310058 v 0.310059 h -0.31006 v -0.310059 z m 0,-0.620117 v 0.310059 h -0.31006 v -0.310059 z m 0.31006,0.620117 v 0.310059 h -0.31006 v -0.310059 z m 0.31006,-0.310058 v 0.310058 h -0.31006 v -0.310058 z m 0.31006,0 v 0.310058 h -0.31006 v -0.310058 z m 0,0.310058 v 0.310059 h -0.31006 v -0.310059 z m -0.31006,0 v 0.310059 h -0.31006 v -0.310059 z m 0.62011,-0.310058 v 0.310058 h -0.31005 v -0.310058 z m 0,-0.310059 v 0.310059 h -0.31005 v -0.310059 z m 0.31006,0 v 0.310059 h -0.31006 v -0.310059 z m 0,-1.240234 v 0.310058 h -0.31006 v -0.310058 z m 0,-0.310059 v 0.310059 h -0.31006 v -0.310059 z m 0,-0.310058 v 0.310058 h -0.31006 v -0.310058 z m 0,-0.310059 v 0.310059 h -0.31006 v -0.310059 z m -0.31006,-0.310058 v 0.310058 h -0.31005 v -0.310058 z m 0,0.310058 v 0.310059 h -0.31005 v -0.310059 z m -0.31005,-0.310058 v 0.310058 h -0.31006 v -0.310058 z m -0.31006,0 v 0.310058 h -0.31006 v -0.310058 z m -0.31006,0 v 0.310058 h -0.31006 v -0.310058 z m 0,-0.310059 v 0.310059 h -0.31006 v -0.310059 z m 0.31006,0 v 0.310059 h -0.31006 v -0.310059 z m 0.31006,0 v 0.310059 h -0.31006 v -0.310059 z m -1.24024,2.480469 v 0.310058 h -0.31006 v -0.310058 z m 1.86035,-0.620118 v 0.310059 h -0.31006 v -0.310059 z m 0,0.310059 v 0.310059 h -0.31006 v -0.310059 z m 0,0.310059 v 0.310058 h -0.31006 v -0.310058 z m -0.31006,0 v 0.310058 h -0.31005 v -0.310058 z m -0.31005,0.310058 v 0.310059 h -0.31006 v -0.310059 z m 0,-2.17041 v 0.310059 h -0.31006 v -0.310059 z m 0.31005,0.310059 v 0.310058 h -0.31005 v -0.310058 z m 0.62012,0 v 0.310058 h -0.31006 v -0.310058 z m 0,0.310058 v 0.310059 h -0.31006 v -0.310059 z m 0,0.310059 v 0.310058 h -0.31006 v -0.310058 z m 0,0.310058 v 0.310059 h -0.31006 v -0.310059 z m 0,0.310059 v 0.310059 h -0.31006 v -0.310059 z m 0,0.310059 v 0.310058 h -0.31006 v -0.310058 z"
     id="text2"
     aria-label="waiting times for wristband pickup" /><path
     style="fill:#8a0000;fill-opacity:0.656134;stroke:#ffffff;stroke-width:0;stroke-linecap:round;paint-order:markers stroke fill"
     d="M 128.01697,11.722343 127.70596,11.330837 91.725965,28.737801 102.9221,42.831998 Z"
     id="path3"
     sodipodi:nodetypes="ccccc" /></svg>
