<svg version="1.1" xmlns="http://www.w3.org/2000/svg" xmlns:xlink="http://www.w3.org/1999/xlink" width="2302.87437" height="598.26947" viewBox="-204.06012,336.90816,2302.87437,598.26947"><g fill="none" fill-rule="nonzero" stroke="none" stroke-width="none" stroke-linecap="butt" stroke-linejoin="miter" stroke-miterlimit="10" stroke-dasharray="" stroke-dashoffset="0" font-family="none" font-weight="none" font-size="none" text-anchor="none" style="mix-blend-mode: normal"><path d="M204.74082,768.60948l5.88781,-11.04412l9.64458,-10.99217l8.42829,-4.92042l5.989,-15.17961l14.64778,0.27514l9.24421,-8.71905l13.68868,-5.98949l10.7499,-1.6398l4.99995,-1.13536l-84.92314,60.925z" fill="#d0d0ce" stroke="none" stroke-width="1"/><path d="M608.09463,769.28235l9.59319,-0.92015l13.45095,-4.72882l15.17543,4.42107l6.80051,1.95459l-46.49157,0.35975z" fill="#d0d0ce" stroke="none" stroke-width="1"/><path d="M749.81945,338.90816l-5.11313,7.85533l-3.449,9.62237l7.36469,8.48572l-2.31693,11.79622l-7.19938,13.91072l-4.78126,9.06544l-4.1657,14.11022l-3.37373,13.35412l4.61475,13.6079l-4.90276,14.23783l-5.51519,14.32643l-6.81748,10.83136l9.69984,10.02534l2.8487,10.53276l6.0223,15.76785l15.60211,-1.61558l8.85415,5.94901l14.53056,-12.63937v-14v-8l-5,-12l1,-9v-13l7,-11l-1,-10v-10l-1,-8v-11l-7,-13l10,-10l-4,-14l-2,-12l2,-9l-15.70395,-7.22363z" fill="none" stroke="none" stroke-width="1"/><path d="M768.97551,672.67798l-10.01389,5.1859l-11.62792,4.43112l-11.42523,0.88577l-9.33191,3.45613l-14.45219,-4.43509l-12.43625,0.6413l-10.02955,-2.35001l-7.73597,-13.71182l-12.26297,-8.76914l-6.56307,-8.76431l-0.89302,-13.34947l-8.18609,-12.84566l-0.91097,-10.17466l3.89387,-11.79686l1.40448,-11.14796l11.6491,-4.05108l0.48378,-10.69857l109.05064,94.40583z" fill="#d0d0ce" stroke="none" stroke-width="1"/><path d="M507.81414,456.7379l70.78016,-45.2346l96.58985,151.1375l-3.5086,10.11846l-12.32031,0.56821l-4.51912,10.28724l-7.09024,10.20082l-2.02242,10.01316l4.19168,14.64421l-2.94317,13.05158l3.79733,10.26973l9.26015,11.89655l3.51366,15.34645l8.94598,5.10724l12.10447,2.92458l12.59231,8.36478l9.92961,-0.65734l11.20484,2.40249l12.40816,-0.93856l11.07568,-2.12148l11.05299,0.05955l26.0618,40.77981l-70.78016,45.2346z" fill="#d0d0ce" stroke="none" stroke-width="1"/><path d="M1005.33042,691.9076l-30.3514,78.32492l-78.79114,-30.53206l-11.77985,30.39912l-4.00263,-1.66381l-1.00505,-15.68691l-4.38066,-14.80782l-9.65795,-11.88325l5.84711,-10.12615l1.41435,-12.15439l-7.94615,-8.20351l-1.20523,-14.58512l3.23055,-12.07539l0.96325,-14.2988l0.33242,-8.21225l5.04949,-5.75503z" fill="#d0d0ce" stroke="none" stroke-width="1"/><path d="M695.93238,397.64171l111.13188,0.3623l-2.65233,7.18212l2.63197,7.78616l4.22373,13.69465l1.31035,12.43119l6.35084,13.18504l10.35782,4.81191l3.03427,11.85423l-1.83089,11.54883l13.27437,7.63405l9.39525,12.25524l6.5587,14.28541l4.33302,0.11928l-0.83261,255.39694l-83.99955,-0.27384l0.9389,-287.99847l-84.49955,-0.27547z" fill="#d0d0ce" stroke="none" stroke-width="1"/><path d="M1006.60352,398.35815l84,0.01984l-0.01638,69.35679l-5.8398,1.38954l-10.50511,-3.97852l-14.01131,1.11395l-13.00578,4.57024l-8.34289,0.95465l-15.03424,0.09228l-7.45049,-11.08403l-9.80785,-3.83334z" fill="#d0d0ce" stroke="none" stroke-width="1"/><path d="M1090.72333,770.28404l-83.99999,0.04807l-0.17934,-313.39854l9.81094,3.82541l7.45944,11.078l15.03416,-0.10443l8.34211,-0.9614l13.00208,-4.58076l14.01041,-1.12528l10.50832,3.97002l5.83867,-1.39426z" fill="#d0d0ce" stroke="none" stroke-width="1"/><path d="M1507.04217,770.18993l-11.28507,-14.18919l-13.92245,3.76092l-8.3534,-10.30753l-8.46476,-2.62814l-5.93505,-7.512l-8.18123,-3.32079l-3.17664,-15.7304l-13.27338,-7.03703l-5.10945,-15.46434l-7.52036,-8.11056l-15.59201,-6.30546l2.13285,-14.8209l-15.63741,-8.16684l-4.83187,-12.51943l-0.78433,-12.17623l-8.96261,-6.86501l-6.80644,-12.61397l1.17756,-15.77818l-3.07183,-8.49096l-9.72363,-10.74377l-1.4706,-13.38907l-6.63266,-7.0418l-1.60493,-9.33332l1.58642,-12.87197l-3.37163,-12.66896l8.73729,-11.03919l0.06803,-11.54963l6.03352,-8.91158l5.21914,-13.62289l11.41378,-9.14473l5.94097,-6.17122l136.07971,302.79074z" fill="#d0d0ce" stroke="none" stroke-width="1"/><path d="M1785.98333,630.02502l-38.18227,124.2663c-7.41893,5.75173 -15.65384,11.06244 -24.70474,15.93213l-0.7515,-1.77664l-8.53054,-12.45141l-5.89041,-13.86346l3.55749,-15.35774l-1.86583,-10.0838l2.72209,-13.23198l-1.40916,-13.19889l-2.21896,-8.40931l-1.58683,-10.63974l3.03118,-11.04112l1.72062,-15.62343l12.21573,-5.95189l-0.84516,-15.39466l6.36899,-7.30109l1.85445,-2.62359z" fill="#d0d0ce" stroke="none" stroke-width="1"/><path d="M1834.46083,702.17967l-1.85965,47.48206l-4.66906,2.38677l-13.89365,-1.60261l-8.8935,-1.67616l-10.83934,4.73301l-10.36356,5.019l0.33631,-16.99592l9.41072,-0.79302l10.55486,-8.83895l5.6469,-11.02052l-3.49377,-11.85847l3.88498,-7.78217z" fill="#d0d0ce" stroke="none" stroke-width="1"/><path d="M1832.36268,770.39171l-68.49881,-0.40297l0.40591,-68.99881l44.30195,0.26062l-3.62403,7.90707l3.8862,11.73572l-5.27728,11.20222l-10.25507,9.18508l-9.37914,1.10554l0.22909,16.9977l10.19091,-5.36087l10.67594,-5.09087l8.94432,1.37946l13.93926,1.13967l4.5871,-2.54073z" fill="#d0d0ce" stroke="none" stroke-width="1"/><path d="M1944.09019,701.53358l-0.15658,31.21681l-8.50687,-1.59501l-12.16982,8.65738l-10.53522,-3.19091l-8.16596,4.20432l-16.04389,-1.16928l-9.54781,-0.24429l-3.54752,-3.42748l0.10705,-21.34074l5.00587,-4.48335l6.78636,-4.22565l8.30506,-4.64492z" fill="#d0d0ce" stroke="none" stroke-width="1"/><path d="M1943.55367,770.56491l-68.49794,-0.53151l0.2654,-34.20341l3.5381,3.4372l9.5471,0.27048l16.04063,1.21329l8.17746,-4.1819l10.52643,3.2198l12.19352,-8.62397l8.50246,1.61834z" fill="#d0d0ce" stroke="none" stroke-width="1"/><path d="M1859.06482,770.16802l-20.02995,0.06415l8.26661,-4.71302l6.7514,-4.28128l4.96885,-4.52434z" fill="#d0d0ce" stroke="none" stroke-width="1"/><path d="M2084.80304,698.99721l1.00176,40.44815l-1.83208,2.93345l1.99372,3.59295l0.48205,19.46372l-2.40554,2.60171l-33.39787,0.82715l-0.4257,-12.04056l-7.08231,-13.2158l-1.64614,-9.34013l6.00391,-13.87998l0.00271,-10.16046l-1.05049,-8.27474l1.98771,-2.05475z" fill="#d0d0ce" stroke="none" stroke-width="1"/><path d="M2067.59666,768.40563l1.73319,1.75872l-3.54329,0.0251z" fill="#d0d0ce" stroke="none" stroke-width="1"/><path d="M2006.30587,769.47251l1.41961,-68.98539l32.11378,0.66085l-2.07879,1.96256l0.67439,8.31385l-0.4632,10.14989l-6.6268,13.59361l1.22114,9.40514l6.47608,13.5232l-0.12044,12.04748z" fill="#d0d0ce" stroke="none" stroke-width="1"/><path d="M2095.89156,768.2162l2.92269,1.8492l-6.52723,0.12349z" fill="#d0d0ce" stroke="none" stroke-width="1"/><path d="M-139.17633,650.70739l-3.88765,-15.1268" fill="none" stroke="none" stroke-width="1"/><path d="" fill="none" stroke="#00bb31" stroke-width="6" opacity="0"/><path d="M332.44729,556.59841l5.09054,-17.47379" fill="none" stroke="none" stroke-width="1"/><path d="" fill="none" stroke="#00bb31" stroke-width="6" opacity="0"/><path d="M600.16655,769.86917l-95.49988,0.14838l-33.65223,-97.94783l-72.49991,0.11265l-32.84769,98.05116l-95.49988,0.14838l62.28034,-213.7835l1.34353,-1.03652l13.87803,-4.28956l14.57145,2.74743l7.59457,-8.92832l13.62018,-1.13781l10.38945,4.58905l5.67793,-8.66111l8.75472,0.32945l11.97547,-12.06003l13.14635,3.23429l-12.02756,-7.07464l-11.41608,10.13986l-4.31637,-0.73999l5.60131,-4.59428l7.97562,-9.02162l7.9143,-6.19385l7.284,-9.74389l9.42015,-10.40484l9.3895,-8.99096l7.16138,-4.08836l5.83946,-8.36066l-8.60591,5.47158l-8.5446,2.64382l-10.77272,7.54642l-10.80338,8.9603l-7.284,9.74389l-7.9143,6.19385l-7.97562,9.02162l-10.08111,8.26869l-1.6705,2.54817l-6.32051,1.64235l-13.06078,-0.78237l-7.03517,7.00814l-14.01206,-4.6676l-13.31863,2.36938l-1.28754,0.84432l41.05099,-140.91162l111.99986,-0.17402l22.44979,76.1788l-0.00726,7.07582l-0.07328,15.80615l8.24851,11.62978l3.52512,8.96936l1.4495,1.1156z" fill="#d0d0ce" stroke="none" stroke-width="1"/><path d="M-122.66404,714.95661l-5.81998,-22.64552" fill="none" stroke="none" stroke-width="1"/><path d="" fill="none" stroke="#00bb31" stroke-width="6" opacity="0"/><path d="M-119.42765,727.54937l-10.82282,-42.11152" fill="none" stroke="none" stroke-width="1"/><path d="" fill="none" stroke="#00bb31" stroke-width="6" opacity="0"/><path d="M82.98427,565.16877l38.95559,-167.01036l104,-0.02765l-17.62563,62.21214l-3.20444,4.00251l-7.38859,7.97859l-6.97843,13.21195l-1.80123,12.57906l-11.63077,8.90834l4.76947,15.6058l-3.52895,9.09907l-0.69861,14.60676l2.27278,12.30745l-0.30112,2.25951l-59.28558,209.25685l-75.5,0.02007l-34.04174,-156.99095l-38.95825,157.01036l-80.5,0.0214l-10.96643,-42.67031l4.97394,-5.18241l6.92826,-5.60406l4.28776,-13.79111l12.1104,-9.22972l1.46506,-18.37721l8.50946,-9.41192l7.08575,-14.20494l14.22093,-18.41l5.50455,-10.39708l8.71638,-8.01292l4.49468,-12.39211l9.31241,-8.81588l7.11046,-9.205l5.09072,-13.19507l12.1104,-9.22972l4.31248,-8.79117l6.51443,-8.40205l1.07594,-16.17526l8.50946,-9.41192l9.08821,-4.78447l-10.08387,0.91037l-9.00729,7.47487l-1.57377,14.23821l-7.01226,6.465l-4.81031,6.85412l-12.60823,7.29266l-5.58855,11.25802l-7.60829,7.26795l-8.53031,5.98135l0.48066,-2.19846l-4.30206,-11.29125l-4.36462,-10.29321l0.37245,10.04297l2.30598,11.16613l-4.80543,12.7243l-1.55363,4.89088l-3.62,2.38704l-6.00238,8.46003l-15.21659,14.5359l-7.58358,12.26789l-9.00729,7.47487l-1.96289,16.44016l-12.60823,7.29266l-4.78559,11.85405l-7.42609,3.66701l-5.34234,3.74895l-8.92586,-34.73045l9.39433,-7.6202l9.10656,-12.6935l3.95083,-14.24866l14.73618,-6.92225l5.19823,-15.812l7.86733,-4.72706l3.71009,-8.81407l-4.70575,4.93997l-8.36516,2.79l-5.69606,13.87494l-4.83028,1.58067l4.16137,-8.59219l-3.32574,-14.86403l8.35063,-6.57776l4.35436,-12.41127l-3.69319,-12.89808l-2.52649,-13.69733l-1.40542,12.96244l1.72723,12.53063l-6.32031,12.04382l-8.35063,6.57776l3.32574,14.86403l-4.96989,10.26159l-4.41872,7.31265l2.68734,-4.10773l-4.44866,12.31161l-9.60439,10.75645l-9.79717,6.05275l-60.99614,-237.33551l99,-0.02632l39.5444,166.98949l38.95559,-167.01036l70.5,-0.01875z" fill="#d0d0ce" stroke="none" stroke-width="1"/><path d="M1141.68437,612.33941l-0.02918,-21.99998" fill="none" stroke="none" stroke-width="1"/><path d="" fill="none" stroke="#00bb31" stroke-width="6" opacity="0"/><path d="M1141.68728,614.53363l-0.02429,-18.3163" fill="none" stroke="none" stroke-width="1"/><path d="" fill="none" stroke="#00bb31" stroke-width="6" opacity="0"/><path d="M1326.64251,580.65261l-0.24203,-182.49984l88.99992,-0.11803l0.01359,10.24453l-7.94436,3.20409l-14.15451,3.68109l-10.33117,10.29997l-9.14885,5.66729l-4.78257,10.51311l-12.48607,6.50401l-2.10081,12.94052l-6.70881,11.09938l-2.34989,9.17413l3.1753,9.13765l-4.13013,12.82076l4.48327,13.77961l-0.66683,9.00489l-7.52347,13.91888l1.05649,14.29418l5.37402,9.92857l-4.26076,11.43336l-0.70699,13.40087l10.93379,13.84479l-8.00407,12.65476l11.65313,12.12742l3.54866,10.47588l-1.65728,16.20203l9.23799,11.84744l-3.53003,15.65488l6.10945,6.37454l2.34645,9.28166l6.65131,5.85827l3.41102,12.82145l14.24365,2.25784l4.50015,17.56231l14.20219,4.19783l0.03951,29.7917l-84.99993,0.11273l-100.24261,-182.86722l0.2427,182.99984l-88.99992,0.11803l-0.20671,-155.86416l1.17215,-2.57775l9.10866,-8.87453l11.76429,1.56327l4.3978,-15.34042l11.98367,0.16618l4.59848,-3.05245l13.49483,-6.23614l-2.12955,-5.25076l1.22593,-1.22376l7.86166,-5.49148l8.58775,-15.68228l-8.59306,11.68229l-7.86431,3.49148l-3.17339,2.40235l-1.23016,-3.03317l4.67412,-11.05227l13.21083,-10.69925l1.66355,-9.06822l1.76905,-14.45235l2.30056,-13.14182l3.6111,-13.67333l10.20025,-8.71521l-13.88434,7.15717l-5.45314,12.89431l-4.14261,12.3628l-3.6111,13.67333l-1.66355,9.06822l-13.21083,10.69925l-4.67412,11.05227l4.56992,11.26791l-8.15115,5.02111l-11.98632,-2.16617l-4.40045,13.34042l-11.76694,-3.56327l-9.11131,6.87453l-1.17257,2.26144l-0.26235,-197.81922l85.49992,-0.11339z" fill="#d0d0ce" stroke="none" stroke-width="1"/><path d="M1686.3717,413.97631l10.7615,6.02668" fill="none" stroke="none" stroke-width="1"/><path d="" fill="none" stroke="#00bb31" stroke-width="6" opacity="0"/><path d="M1705.26455,741.79566c-9.90034,7.22917 -20.64522,13.24989 -32.23463,18.06214c-11.58941,4.81225 -24.08342,8.23965 -37.48201,10.2822c-13.3986,2.04255 -27.19891,2.09595 -41.40093,0.16021l-0.49542,-0.06753c-22.12873,-3.01615 -41.12003,-9.30524 -56.97391,-18.86726c-15.85388,-9.56202 -28.60031,-21.56003 -38.23928,-35.99403c-8.27396,-12.38994 -14.41312,-26.348 -18.41747,-41.87419l6.50581,-7.03253l9.18031,-10.21446l6.29768,-5.66579l10.16324,-9.57522l-10.91515,5.64653l-6.67364,3.70144l-9.55627,8.25011l-7.02933,5.99095c-3.65489,-18.37687 -4.39355,-37.97387 -2.21598,-58.79098l10.39896,-76.29457c2.70103,-19.81677 8.23952,-38.23755 16.61548,-55.26234c8.37596,-17.02479 19.25543,-31.43754 32.6384,-43.23826c13.38298,-11.80072 29.20194,-20.49399 47.45689,-26.07981c18.25495,-5.58582 38.61192,-6.84814 61.07093,-3.78698l0.49542,0.06753c16.48324,2.99186 30.45593,7.24635 41.91806,12.76348l-1.0689,1.94494l4.03521,15.06584l-2.28003,9.2248l-2.40586,10.21685l4.66433,10.10557l-6.1667,15.2218l9.51267,-13.02989l-2.99135,-9.00962l4.07884,-9.1209l3.95302,-8.12885l-2.36223,-13.96988l1.79248,-2.49399c0.15981,0.10426 0.31895,0.20885 0.47741,0.31379c13.11403,8.68396 23.27438,18.05868 30.48104,28.12417c7.20666,10.06548 12.34908,19.84961 15.42725,29.35238c3.07817,9.50277 5.93103,16.95634 8.55856,22.3607l-74.5127,35.76461c-1.15621,-3.85816 -2.4926,-8.2455 -4.00918,-13.16203c-1.51658,-4.91652 -3.90387,-9.61531 -7.16188,-14.09636c-3.25801,-4.48105 -7.50307,-8.50791 -12.73517,-12.08058c-5.23211,-3.57267 -12.14179,-5.94422 -20.72906,-7.11467c-16.51398,-2.25086 -30.39662,1.49189 -41.64795,11.22825c-11.25132,9.73636 -18.11495,23.68722 -20.5909,41.8526l-9.79123,71.8358c-1.21546,8.91755 -0.86589,17.45968 1.04872,25.62641c1.91461,8.16672 5.06019,15.32377 9.43674,21.47115c4.37655,6.14738 9.80767,11.34514 16.29337,15.5933c6.4857,4.24816 13.85704,6.93495 22.11403,8.06038c11.51477,1.90588 21.11527,1.19594 28.8015,-2.12983c7.68623,-3.32577 13.79606,-8.04385 18.32948,-14.15425l2.49845,-18.33051l-39.13812,-5.33453l9.7237,-71.34038l62.39293,8.50417l-1.40515,2.88925l-5.10272,8.23603l3.32678,15.05465l-11.09077,7.85136l0.83189,15.69586l-1.20336,11.38624l3.28872,10.24239l3.55135,7.93904l3.52778,12.79653l-0.5436,13.49814l3.47402,9.6486l-1.02376,15.73111l8.05751,12.7267l10.43415,10.90579l1.02926,1.63151c-1.40322,1.08064 -2.83247,2.15228 -4.28776,3.21492z" fill="#d0d0ce" stroke="none" stroke-width="1"/><path d="M1480.02089,673.49721l-2.02735,-8.89896" fill="none" stroke="none" stroke-width="1"/><path d="" fill="none" stroke="#00bb31" stroke-width="6" opacity="0"/><path d="M1283.39019,725.6l-7.8,33.4l-7.8,-33.4h-14.1l-7.8,33.4l-7.9,-33.4h-19.8l19.1,74.4h16.1l7.8,-31.4l6.8,31.4h15.1l21.1,-74.4zM1211.59019,815.5v-104.6h732.5v104.6zM1351.09019,780.4l6.7,19.6h19.1l-21.8,-74.4h-22.4l-21.8,74.4h19.1l6.6,-19.6zM1406.79019,800v-74.4h-16.8v74.4zM1466.59019,725.6h-50.6v16.8h16.9v57.6h16.8v-57.6h16.9zM1493.29019,800v-74.4h-16.8v74.4zM1540.59019,725.6v36.5l-19.9,-36.5h-17.1v74.4h17.8v-36.6l20,36.6h17v-74.4zM1621.29019,760.2h-24v14.4h7.9v3.7c-0.73333,1.33333 -1.81667,2.43333 -3.25,3.3c-1.43333,0.86667 -3.31667,1.26667 -5.65,1.2c-1.66667,0 -3.2,-0.33333 -4.6,-1c-1.4,-0.66667 -2.61667,-1.55 -3.65,-2.65c-1.03333,-1.1 -1.85,-2.43333 -2.45,-4c-0.6,-1.56667 -0.9,-3.25 -0.9,-5.05v-14.5c0,-3.66667 0.98333,-6.61667 2.95,-8.85c1.96667,-2.23333 4.61667,-3.35 7.95,-3.35c1.73333,0 3.16667,0.28333 4.3,0.85c1.13333,0.56667 2.08333,1.25 2.85,2.05c0.76667,0.8 1.36667,1.66667 1.8,2.6c0.43333,0.93333 0.81667,1.76667 1.15,2.5l13.8,-9.1c-0.66667,-1 -1.43333,-2.4 -2.3,-4.2c-0.86667,-1.8 -2.15,-3.6 -3.85,-5.4c-1.7,-1.8 -3.96667,-3.38333 -6.8,-4.75c-2.83333,-1.36667 -6.51667,-2.15 -11.05,-2.35h-0.1c-4.53333,0 -8.53333,0.8 -12,2.4c-3.46667,1.6 -6.36667,3.75 -8.7,6.45c-2.33333,2.7 -4.1,5.85 -5.3,9.45c-1.2,3.6 -1.8,7.4 -1.8,11.4v15.4c0.13333,4.26667 0.83333,8.2 2.1,11.8c1.26667,3.6 3.05,6.7 5.35,9.3c2.3,2.6 5.15,4.63333 8.55,6.1c3.4,1.46667 7.33333,2.2 11.8,2.2h0.1c2.86667,0 5.6,-0.38333 8.2,-1.15c2.6,-0.76667 4.98333,-1.78333 7.15,-3.05c2.16667,-1.26667 4.13333,-2.75 5.9,-4.45c1.76667,-1.7 3.28333,-3.45 4.55,-5.25zM1713.69019,725.6h-50.6v16.8h16.9v57.6h16.8v-57.6h16.9zM1740.39019,800v-74.4h-16.8v74.4zM1802.59019,725.6l-15.5,43.2l-15.4,-43.2h-17.1v74.4h17.8v-26.8l9.3,26.8h10.8l9.1,-26v26h17.8v-74.4zM1877.99019,742.4v-16.8h-45.6v74.4h45.6v-16.8h-28.8v-12h21.2v-16.8h-21.2v-12zM1938.19019,781.3c0,-3.8 -0.66667,-7.08333 -2,-9.85c-1.33333,-2.76667 -3.1,-5.25 -5.3,-7.45c-2.2,-2.2 -4.71667,-4.16667 -7.55,-5.9c-2.83333,-1.73333 -5.78333,-3.46667 -8.85,-5.2c-2.2,-1.6 -3.81667,-2.88333 -4.85,-3.85c-1.03333,-0.96667 -1.55,-2.08333 -1.55,-3.35c0,-1.66667 0.55,-2.91667 1.65,-3.75c1.1,-0.83333 2.31667,-1.25 3.65,-1.25c1.26667,0 2.38333,0.26667 3.35,0.8c0.96667,0.53333 1.8,1.18333 2.5,1.95c0.7,0.76667 1.25,1.6 1.65,2.5c0.4,0.9 0.7,1.71667 0.9,2.45l14.7,-5.8c-0.33333,-2 -1.03333,-4.01667 -2.1,-6.05c-1.06667,-2.03333 -2.55,-3.85 -4.45,-5.45c-1.9,-1.6 -4.23333,-2.91667 -7,-3.95c-2.76667,-1.03333 -5.98333,-1.55 -9.65,-1.55c-3.06667,0.06667 -6.03333,0.53333 -8.9,1.4c-2.86667,0.86667 -5.4,2.13333 -7.6,3.8c-2.2,1.66667 -3.96667,3.73333 -5.3,6.2c-1.33333,2.46667 -2,5.33333 -2,8.6c0,3.53333 0.61667,6.46667 1.85,8.8c1.23333,2.33333 2.93333,4.43333 5.1,6.3c2.16667,1.86667 4.7,3.65 7.6,5.35c2.9,1.7 6.05,3.68333 9.45,5.95c1.53333,1.06667 2.71667,2.08333 3.55,3.05c0.83333,0.96667 1.28333,2.01667 1.35,3.15c0.06667,1.86667 -0.45,3.23333 -1.55,4.1c-1.1,0.86667 -2.21667,1.36667 -3.35,1.5c-1.33333,0.2 -2.58333,-0.08333 -3.75,-0.85c-1.16667,-0.76667 -2.15,-1.63333 -2.95,-2.6c-0.8,-0.96667 -1.41667,-1.88333 -1.85,-2.75c-0.43333,-0.86667 -0.58333,-1.33333 -0.45,-1.4l-16,6.7c0.66667,2.66667 1.75,5.05 3.25,7.15c1.5,2.1 3.31667,3.88333 5.45,5.35c2.13333,1.46667 4.51667,2.6 7.15,3.4c2.63333,0.8 5.45,1.2 8.45,1.2c3.86667,0 7.33333,-0.45 10.4,-1.35c3.06667,-0.9 5.68333,-2.13333 7.85,-3.7c2.16667,-1.56667 3.86667,-3.4 5.1,-5.5c1.23333,-2.1 1.91667,-4.35 2.05,-6.75z" fill="#fe5000" stroke="none" stroke-width="1"/><path d="M866.22931,824.46909l0.58631,-16.78977l-45.57222,-1.59142l-2.59652,74.35468l16.78977,0.58631l1.00511,-28.78246l21.18709,0.73987l0.58631,-16.78977l-21.18709,-0.73987l0.41879,-11.99269zM813.10898,895.75865l3.65049,-104.53628l1128.81194,39.41898l-3.65049,104.53628zM931.01965,837.33808c0.05203,-3.40026 -0.46575,-6.72035 -1.55334,-9.96028c-1.08759,-3.23993 -2.78645,-6.16767 -5.09657,-8.78322c-2.63162,-2.96031 -5.66961,-5.26774 -9.11397,-6.92229c-3.44436,-1.65455 -7.132,-2.55046 -11.06294,-2.68773l-0.09994,-0.00349c-3.93094,-0.13727 -7.65544,0.4998 -11.17351,1.91121c-3.51807,1.41141 -6.72627,3.50072 -9.62461,6.26792c-2.42032,2.45036 -4.32102,5.30243 -5.70208,8.55621c-1.38106,3.25378 -2.12743,6.4797 -2.23911,9.67775l-0.60725,17.3894c-0.07297,3.99989 0.37855,7.78462 1.35457,11.35419c0.97602,3.56957 2.71438,6.79887 5.21507,9.68791c2.69825,2.96264 5.76955,5.27123 9.21391,6.92578c3.44436,1.65455 7.09869,2.54929 10.963,2.68424l0.09994,0.00349c3.93094,0.13727 7.6721,-0.49922 11.22348,-1.90947c3.55138,-1.41025 6.74409,-3.53345 9.57813,-6.36961c2.76276,-2.70523 4.75837,-5.88752 5.98683,-9.54688c1.22846,-3.65936 1.90551,-7.28794 2.03114,-10.88575zM985.84496,886.28127l-14.05429,-30.20889c0.86614,0.03025 2.08111,-0.3776 3.64492,-1.22354c1.56381,-0.84594 3.12608,-2.12553 4.68683,-3.83877c1.56074,-1.71324 2.93615,-3.84988 4.12622,-6.4099c1.19007,-2.56003 1.84327,-5.50569 1.9596,-8.83699c0.11168,-3.19805 -0.14832,-6.25899 -0.78,-9.18282c-0.63168,-2.92383 -1.75919,-5.49808 -3.38254,-7.72275c-1.62335,-2.22468 -3.82814,-4.03606 -6.61438,-5.43415c-2.78624,-1.39809 -6.31139,-2.17159 -10.57546,-2.32049l-22.68617,-0.79222l-2.59652,74.35468l16.78977,0.58631l0.84457,-24.18526l0.19988,0.00698l9.14934,24.53425zM1094.17703,815.61896l-8.96089,33.10744l-6.62961,-33.65187l-14.09141,-0.49208l-8.96089,33.10744l-6.72954,-33.65536l-19.78794,-0.69101l16.49184,75.02126l16.09019,0.56188l8.89109,-31.10866l5.70001,31.61819l15.0908,0.52698l23.68367,-73.6183zM1170.43245,892.72721l-14.05429,-30.20889c0.86614,0.03025 2.08111,-0.3776 3.64492,-1.22354c1.56381,-0.84594 3.12608,-2.12553 4.68683,-3.83877c1.56074,-1.71324 2.93615,-3.84988 4.12622,-6.4099c1.19007,-2.56003 1.84327,-5.50569 1.9596,-8.83699c0.11168,-3.19805 -0.14832,-6.25899 -0.78,-9.18282c-0.63168,-2.92383 -1.75919,-5.49808 -3.38254,-7.72275c-1.62335,-2.22468 -3.82814,-4.03606 -6.61438,-5.43415c-2.78624,-1.39809 -6.31139,-2.17159 -10.57546,-2.32049l-22.68617,-0.79222l-2.59652,74.35468l16.78977,0.58631l0.84457,-24.18526l0.19988,0.00698l9.14934,24.53425zM1199.11496,893.72883l2.59652,-74.35468l-16.78977,-0.58631l-2.59652,74.35468zM1258.33189,877.08533c0.13262,-3.79769 -0.41906,-7.10228 -1.65502,-9.9138c-1.23597,-2.81151 -2.91489,-5.35499 -5.03677,-7.63043c-2.12188,-2.27544 -4.56838,-4.32874 -7.33949,-6.1599c-2.77111,-1.83116 -5.65883,-3.66639 -8.66313,-5.50569c-2.14282,-1.6758 -3.71371,-3.01478 -4.71268,-4.01692c-0.99897,-1.00214 -1.47635,-2.13616 -1.43214,-3.40205c0.05817,-1.66565 0.65146,-2.8957 1.77987,-3.69013c1.12841,-0.79444 2.35888,-1.16839 3.6914,-1.12186c1.2659,0.04421 2.37257,0.34968 3.32004,0.91643c0.94746,0.56674 1.75761,1.24543 2.43042,2.03606c0.67282,0.79063 1.1934,1.64265 1.56175,2.55606c0.36835,0.91341 0.63966,1.74005 0.81395,2.47992l14.89346,-5.28344c-0.26333,-2.01041 -0.89252,-4.05028 -1.88758,-6.1196c-0.99505,-2.06932 -2.41408,-3.93665 -4.25709,-5.60198c-1.843,-1.66533 -4.12896,-3.06263 -6.85788,-4.19189c-2.72892,-1.12926 -5.92559,-1.75787 -9.59003,-1.88584c-3.06713,-0.0404 -6.04827,0.32245 -8.94344,1.08854c-2.89517,0.76609 -5.47116,1.94358 -7.72799,3.53245c-2.25683,1.58887 -4.09454,3.59262 -5.51315,6.01126c-1.41861,2.41863 -2.18491,5.26029 -2.29892,8.52496c-0.12331,3.53118 0.39061,6.48425 1.54176,8.8592c1.15115,2.37495 2.77683,4.533 4.87703,6.47415c2.1002,1.94115 4.56975,3.8118 7.40866,5.61198c2.8389,1.80017 5.91777,3.89223 9.23659,6.27618c1.49517,1.11953 2.6423,2.17687 3.44139,3.17204c0.79909,0.99516 1.21217,2.06023 1.23924,3.1952c0.00148,1.86786 -0.56257,3.21566 -1.69214,4.04341c-1.12958,0.82775 -2.26301,1.28847 -3.40031,1.38217c-1.3395,0.15335 -2.57885,-0.17344 -3.71805,-0.98036c-1.1392,-0.80692 -2.09169,-1.70737 -2.85746,-2.70137c-0.76578,-0.994 -1.35008,-1.93163 -1.7529,-2.81289c-0.40282,-0.88126 -0.53645,-1.35288 -0.40087,-1.41485l-16.22408,6.13753c0.5732,2.68831 1.57269,5.108 2.99849,7.25907c1.4258,2.15107 3.17912,3.99672 5.25997,5.53694c2.08085,1.54023 4.42318,2.75605 7.02699,3.64746c2.60381,0.89141 5.4048,1.38947 8.40297,1.49417c3.86431,0.13494 7.34457,-0.1938 10.44078,-0.98622c3.09621,-0.79243 5.75432,-1.93369 7.97435,-3.42379c2.22002,-1.4901 3.98297,-3.26298 5.28884,-5.31866c1.30587,-2.05568 2.06731,-4.28046 2.28432,-6.67434zM1318.04058,823.43645l-50.56918,-1.76591l-0.58631,16.78977l16.8897,0.5898l-2.01021,57.56491l16.78977,0.58631l2.01021,-57.56491l16.8897,0.5898zM1355.68493,860.07254c1.19927,0.04188 2.48029,-0.34698 3.84305,-1.16659c1.36277,-0.81961 2.62057,-1.97641 3.77341,-3.47042c1.15284,-1.49401 2.11628,-3.29482 2.8903,-5.40242c0.77403,-2.1076 1.20641,-4.46061 1.29715,-7.05903c0.08609,-2.46516 -0.26672,-4.77889 -1.0584,-6.94117c-0.79169,-2.16228 -2.02575,-4.07318 -3.70219,-5.7327c-1.67644,-1.65952 -3.86421,-3.00336 -6.5633,-4.03151c-2.6991,-1.02816 -5.88086,-1.60622 -9.54529,-1.73418l-17.28946,-0.60376l-2.59652,74.35468l24.2852,0.84806c3.26468,0.11401 6.14879,-0.33561 8.65235,-1.34886c2.50355,-1.01324 4.60465,-2.44079 6.3033,-4.28263c1.69865,-1.84184 3.00743,-3.9808 3.92634,-6.41688c0.91891,-2.43608 1.42606,-5.01996 1.52145,-7.75162c0.06515,-1.86553 -0.16371,-3.90809 -0.68656,-6.12769c-0.52286,-2.2196 -1.40131,-4.28485 -2.63538,-6.19575c-1.23406,-1.9109 -2.86228,-3.5187 -4.88464,-4.82341c-2.02236,-1.30471 -4.53263,-2.00941 -7.53081,-2.11411zM1420.66437,881.85356l6.01189,19.82189l19.08836,0.66658l-19.1902,-75.11549l-22.38635,-0.78175l-24.38324,73.59387l19.08836,0.66658l7.28001,-19.35772zM1494.73288,829.60668l-1.27383,36.47777l-18.61405,-37.17227l-17.08958,-0.59678l-2.59652,74.35468l17.78916,0.62121l1.27732,-36.5777l18.71049,37.27569l16.98964,0.59329l2.59652,-74.35468zM1573.186,869.569c0.1838,-5.26346 -0.37749,-10.20272 -1.68389,-14.81779c-1.3064,-4.61507 -3.36779,-8.62279 -6.18417,-12.02315c-2.81638,-3.40036 -6.39007,-6.12674 -10.72108,-8.17914c-4.33101,-2.0524 -9.39475,-3.17981 -15.19122,-3.38223l-14.99086,-0.52349l-2.59652,74.35468l17.18952,0.60027c6.06297,0.21172 11.22808,-0.60852 15.49532,-2.46072c4.26724,-1.8522 7.7594,-4.4319 10.47647,-7.73909c2.71707,-3.30719 4.72046,-7.18964 6.01015,-11.64734c1.28969,-4.45771 2.02178,-9.18504 2.19628,-14.18199zM1616.7585,833.86791l-2.59652,74.35468l17.08958,0.59678l0.91437,-26.18404l5.59659,0.19544c3.19805,0.11168 6.11664,-0.37009 8.75577,-1.44531c2.63913,-1.07522 4.91203,-2.64685 6.8187,-4.7149c1.90667,-2.06805 3.41088,-4.5504 4.51265,-7.44705c1.10176,-2.89665 1.71546,-6.14387 1.8411,-9.74168c0.12796,-3.66443 -0.25598,-6.99653 -1.15184,-9.99629c-0.89586,-2.99976 -2.22325,-5.58099 -3.98217,-7.74369c-1.75893,-2.1627 -3.91782,-3.85575 -6.47669,-5.07913c-2.55886,-1.22338 -5.43732,-1.89091 -8.63537,-2.00259zM1686.91763,910.76327l2.59652,-74.35468l-16.78977,-0.58631l-2.59652,74.35468zM1726.46971,895.6344c-3.38862,-0.38516 -6.07201,-1.86305 -8.05017,-4.43365c-1.97816,-2.5706 -2.90326,-5.68812 -2.77529,-9.35255l0.50604,-14.49117c0.12796,-3.66443 1.25046,-6.67709 3.36747,-9.03798c2.11702,-2.36089 4.87914,-3.61526 8.28638,-3.7631c1.40147,-0.01777 2.72469,0.29527 3.96964,0.93911c1.24496,0.64384 2.34968,1.48291 3.31417,2.5172c0.96449,1.03429 1.77442,2.1966 2.42979,3.48692c0.65537,1.29032 1.16199,2.5421 1.51987,3.75533l14.77385,-7.58902c-0.65378,-2.29088 -1.59072,-4.59165 -2.81083,-6.9023c-1.2201,-2.31066 -2.8481,-4.40208 -4.88401,-6.27427c-2.0359,-1.87219 -4.49985,-3.4258 -7.39184,-4.66081c-2.89199,-1.23501 -6.37009,-1.92348 -10.43427,-2.06541l-0.09994,-0.00349c-4.5972,-0.16054 -8.65774,0.54818 -12.18162,2.12616c-3.52388,1.57798 -6.48398,3.72598 -8.8803,6.44401c-2.39632,2.71803 -4.23969,5.83893 -5.53012,9.36271c-1.29043,3.52378 -2.03294,7.11672 -2.22753,10.77883l-0.53745,15.39062c0.06493,3.87129 0.53486,7.60663 1.40977,11.20603c0.87492,3.59939 2.34793,6.78608 4.41905,9.56005c2.07112,2.77397 4.79438,5.02038 8.16978,6.73923c3.3754,1.71885 7.59489,2.66668 12.65847,2.84351l0.09994,0.00349c4.53057,0.15821 8.3676,-0.35819 11.51108,-1.54921c3.14348,-1.19102 5.74602,-2.65108 7.80762,-4.38019c2.0616,-1.7291 3.67464,-3.50723 4.83911,-5.33437c1.16448,-1.82714 2.06747,-3.32987 2.70898,-4.5082l-14.20848,-8.60111c-1.08082,2.29701 -2.59974,4.24519 -4.55675,5.84453c-1.95701,1.59934 -4.36448,2.24905 -7.22242,1.94913zM1816.93648,840.85828l-20.78733,-0.72591l-12.69639,16.86718l0.60376,-17.28946l-16.78977,-0.58631l-2.59652,74.35468l16.78977,0.58631l0.56188,-16.09019l11.43081,16.50899l20.78733,0.72591l-26.28842,-38.04063zM1883.29952,843.07567l-17.28946,-0.60376l-1.51813,43.4735c-0.06282,1.7989 -0.30537,3.49147 -0.72765,5.0777c-0.42228,1.58623 -1.03746,2.9656 -1.84554,4.13811c-0.80808,1.17251 -1.82397,2.08762 -3.04767,2.74531c-1.2237,0.65769 -2.66837,0.95746 -4.33403,0.89929c-1.66565,-0.05817 -3.0859,-0.45798 -4.26074,-1.19943c-1.17484,-0.74145 -2.14108,-1.72577 -2.89871,-2.95296c-0.75763,-1.22719 -1.29175,-2.64669 -1.60236,-4.25852c-0.3106,-1.61182 -0.4345,-3.31718 -0.37168,-5.11609l1.51813,-43.4735l-17.28946,-0.60376l-1.5635,44.77271c-0.13727,3.93094 0.21431,7.71218 1.05475,11.34372c0.84044,3.63154 2.2784,6.86703 4.31388,9.70647c2.03548,2.83943 4.72426,5.11799 8.06635,6.83568c3.34209,1.71768 7.44615,2.62813 12.31218,2.73135l0.09994,0.00349c4.39499,0.22018 8.28315,-0.32779 11.66448,-1.64392c3.38133,-1.31613 6.23393,-3.25109 8.5578,-5.80487c2.32387,-2.55379 4.13277,-5.64254 5.42669,-9.26626c1.29392,-3.62372 2.01766,-7.63424 2.17122,-12.03155zM1894.68908,843.57346l-2.59652,74.35468l17.08958,0.59678l0.91437,-26.18404l5.59659,0.19544c3.19805,0.11168 6.11664,-0.37009 8.75577,-1.44531c2.63913,-1.07522 4.91203,-2.64685 6.8187,-4.7149c1.90667,-2.06805 3.41088,-4.5504 4.51265,-7.44705c1.10176,-2.89665 1.71546,-6.14387 1.8411,-9.74168c0.12796,-3.66443 -0.25598,-6.99653 -1.15184,-9.99629c-0.89586,-2.99976 -2.22325,-5.58099 -3.98217,-7.74369c-1.75893,-2.1627 -3.91782,-3.85575 -6.47669,-5.07913c-2.55886,-1.22338 -5.43732,-1.89091 -8.63537,-2.00259z" fill="#fe5000" stroke="none" stroke-width="1"/></g></svg>